<svg width="50" height="54" viewBox="0 0 50 54" fill="none" xmlns="http://www.w3.org/2000/svg">
    <path d="M25.3734 19.9093V19.9147L12.6534 1.20801C12.5063 0.989357 12.3174 0.801939 12.0976 0.656526C11.8778 0.511113 11.6314 0.410572 11.3727 0.360685C11.1139 0.310797 10.8478 0.312545 10.5897 0.365828C10.3316 0.419111 10.0866 0.522879 9.86871 0.671167C9.65084 0.819455 9.46444 1.00934 9.3202 1.22991C9.17596 1.45047 9.07673 1.69737 9.02823 1.95641C8.97972 2.21545 8.98289 2.48152 9.03755 2.73933C9.09221 2.99714 9.19728 3.24161 9.34673 3.45868L23.0267 23.5787L16.6401 33.56C14.2925 32.322 11.5677 32.0036 8.99789 32.6671C6.42812 33.3305 4.19799 34.9282 2.74313 37.1479C1.28827 39.3677 0.713184 42.0501 1.13022 44.6711C1.54725 47.2922 2.92644 49.6637 4.99838 51.3223C7.07032 52.9809 9.68617 53.8075 12.335 53.6406C14.9837 53.4738 17.4752 52.3255 19.3226 50.42C21.1701 48.5145 22.2408 45.9887 22.3256 43.336C22.4104 40.6833 21.5033 38.0943 19.7814 36.0747L25.4747 27.176L30.9814 35.272C29.0593 37.1037 27.8895 39.5863 27.7005 42.2346C27.5115 44.8829 28.317 47.5065 29.9594 49.5925C31.6019 51.6786 33.9633 53.0771 36.582 53.5147C39.2008 53.9523 41.8886 53.3975 44.12 51.9588C46.3515 50.5201 47.9662 48.301 48.6485 45.7351C49.3308 43.1692 49.0317 40.4411 47.8096 38.0841C46.5875 35.727 44.5303 33.9104 42.0401 32.9895C39.5499 32.0685 36.8057 32.1094 34.3441 33.104L27.8187 23.512L27.8241 23.5067L25.3761 19.912L25.3734 19.9093ZM5.00006 43.0027C5.00006 42.1272 5.1725 41.2603 5.50753 40.4515C5.84256 39.6426 6.33362 38.9077 6.95268 38.2886C7.57174 37.6696 8.30667 37.1785 9.1155 36.8435C9.92434 36.5084 10.7912 36.336 11.6667 36.336C12.5422 36.336 13.4091 36.5084 14.2179 36.8435C15.0268 37.1785 15.7617 37.6696 16.3808 38.2886C16.9998 38.9077 17.4909 39.6426 17.8259 40.4515C18.161 41.2603 18.3334 42.1272 18.3334 43.0027C18.3334 44.7708 17.631 46.4665 16.3808 47.7167C15.1305 48.967 13.4348 49.6693 11.6667 49.6693C9.89862 49.6693 8.20292 48.967 6.95268 47.7167C5.70244 46.4665 5.00006 44.7708 5.00006 43.0027ZM31.6667 43.0027C31.6667 41.2346 32.3691 39.5389 33.6193 38.2886C34.8696 37.0384 36.5653 36.336 38.3334 36.336C40.1015 36.336 41.7972 37.0384 43.0474 38.2886C44.2977 39.5389 45.0001 41.2346 45.0001 43.0027C45.0001 44.7708 44.2977 46.4665 43.0474 47.7167C41.7972 48.967 40.1015 49.6693 38.3334 49.6693C36.5653 49.6693 34.8696 48.967 33.6193 47.7167C32.3691 46.4665 31.6667 44.7708 31.6667 43.0027Z" fill="#27946D"/>
    <path d="M30.168 19.8427L40.6826 3.41066C40.8335 3.18958 40.9384 2.94049 40.9912 2.67813C41.044 2.41577 41.0436 2.14548 40.99 1.88327C40.9365 1.62106 40.8309 1.37227 40.6794 1.15163C40.5279 0.930992 40.3337 0.742993 40.1083 0.598772C39.8829 0.45455 39.6308 0.357039 39.367 0.312015C39.1032 0.266992 38.833 0.27537 38.5725 0.336655C38.312 0.397941 38.0664 0.510886 37.8504 0.668801C37.6343 0.826715 37.4521 1.02639 37.3146 1.25599L27.72 16.248L30.168 19.8427Z" fill="#27946D"/>
</svg>
