<svg width="40" height="43" viewBox="0 0 40 43" fill="none" xmlns="http://www.w3.org/2000/svg">
<path d="M36.25 3.5H31.375V1.875C31.375 1.44402 31.2038 1.0307 30.899 0.725951C30.5943 0.421205 30.181 0.25 29.75 0.25C29.319 0.25 28.9057 0.421205 28.601 0.725951C28.2962 1.0307 28.125 1.44402 28.125 1.875V3.5H11.875V1.875C11.875 1.44402 11.7038 1.0307 11.399 0.725951C11.0943 0.421205 10.681 0.25 10.25 0.25C9.81902 0.25 9.4057 0.421205 9.10095 0.725951C8.79621 1.0307 8.625 1.44402 8.625 1.875V3.5H3.75C2.88805 3.5 2.0614 3.84241 1.4519 4.4519C0.84241 5.0614 0.5 5.88805 0.5 6.75V39.25C0.5 40.112 0.84241 40.9386 1.4519 41.5481C2.0614 42.1576 2.88805 42.5 3.75 42.5H36.25C37.112 42.5 37.9386 42.1576 38.5481 41.5481C39.1576 40.9386 39.5 40.112 39.5 39.25V6.75C39.5 5.88805 39.1576 5.0614 38.5481 4.4519C37.9386 3.84241 37.112 3.5 36.25 3.5ZM8.625 6.75V8.375C8.625 8.80598 8.79621 9.2193 9.10095 9.52405C9.4057 9.82879 9.81902 10 10.25 10C10.681 10 11.0943 9.82879 11.399 9.52405C11.7038 9.2193 11.875 8.80598 11.875 8.375V6.75H28.125V8.375C28.125 8.80598 28.2962 9.2193 28.601 9.52405C28.9057 9.82879 29.319 10 29.75 10C30.181 10 30.5943 9.82879 30.899 9.52405C31.2038 9.2193 31.375 8.80598 31.375 8.375V6.75H36.25V13.25H3.75V6.75H8.625ZM36.25 39.25H3.75V16.5H36.25V39.25Z" fill="#FA9700"/>
</svg>
