<svg width="38" height="38" viewBox="0 0 38 38" fill="none" xmlns="http://www.w3.org/2000/svg">
<path opacity="0.2" d="M32.0625 7.125V13.0625H5.9375V7.125C5.9375 6.81006 6.06261 6.50801 6.28531 6.28531C6.50801 6.06261 6.81006 5.9375 7.125 5.9375H30.875C31.1899 5.9375 31.492 6.06261 31.7147 6.28531C31.9374 6.50801 32.0625 6.81006 32.0625 7.125Z" fill="#FA9700"/>
<path d="M30.875 4.75H27.3125V3.5625C27.3125 3.24756 27.1874 2.94551 26.9647 2.72281C26.742 2.50011 26.4399 2.375 26.125 2.375C25.8101 2.375 25.508 2.50011 25.2853 2.72281C25.0626 2.94551 24.9375 3.24756 24.9375 3.5625V4.75H13.0625V3.5625C13.0625 3.24756 12.9374 2.94551 12.7147 2.72281C12.492 2.50011 12.1899 2.375 11.875 2.375C11.5601 2.375 11.258 2.50011 11.0353 2.72281C10.8126 2.94551 10.6875 3.24756 10.6875 3.5625V4.75H7.125C6.49511 4.75 5.89102 5.00022 5.44562 5.44562C5.00022 5.89102 4.75 6.49511 4.75 7.125V30.875C4.75 31.5049 5.00022 32.109 5.44562 32.5544C5.89102 32.9998 6.49511 33.25 7.125 33.25H30.875C31.5049 33.25 32.109 32.9998 32.5544 32.5544C32.9998 32.109 33.25 31.5049 33.25 30.875V7.125C33.25 6.49511 32.9998 5.89102 32.5544 5.44562C32.109 5.00022 31.5049 4.75 30.875 4.75ZM10.6875 7.125V8.3125C10.6875 8.62744 10.8126 8.92949 11.0353 9.15219C11.258 9.37489 11.5601 9.5 11.875 9.5C12.1899 9.5 12.492 9.37489 12.7147 9.15219C12.9374 8.92949 13.0625 8.62744 13.0625 8.3125V7.125H24.9375V8.3125C24.9375 8.62744 25.0626 8.92949 25.2853 9.15219C25.508 9.37489 25.8101 9.5 26.125 9.5C26.4399 9.5 26.742 9.37489 26.9647 9.15219C27.1874 8.92949 27.3125 8.62744 27.3125 8.3125V7.125H30.875V11.875H7.125V7.125H10.6875ZM30.875 30.875H7.125V14.25H30.875V30.875Z" fill="#FA9700"/>
</svg>
