<svg width="12" height="9" viewBox="0 0 12 9" fill="none" xmlns="http://www.w3.org/2000/svg">
<path fill-rule="evenodd" clip-rule="evenodd" d="M10.8992 1.77361C10.9082 1.76461 10.9168 1.75533 10.9251 1.74581C11.0143 1.64352 11.0639 1.51205 11.0639 1.37547C11.0639 1.31723 11.0549 1.25992 11.0376 1.2054C11.0106 1.12003 10.9634 1.04152 10.8989 0.977035C10.7932 0.871362 10.6499 0.811996 10.5004 0.811996C10.351 0.811996 10.2077 0.871362 10.102 0.977035L4.49998 6.57813L2.27295 4.3511C2.22062 4.29877 2.15851 4.25727 2.09014 4.22895C2.02178 4.20063 1.94851 4.18606 1.87451 4.18606C1.80051 4.18606 1.72724 4.20063 1.65888 4.22895C1.59051 4.25727 1.5284 4.29877 1.47607 4.3511C1.42375 4.40342 1.38224 4.46554 1.35393 4.5339C1.32561 4.60227 1.31104 4.67554 1.31104 4.74954C1.31104 4.82353 1.32561 4.8968 1.35393 4.96517C1.38224 5.03353 1.42375 5.09565 1.47607 5.14797L4.10107 7.77297C4.15333 7.82541 4.21543 7.86702 4.2838 7.89541C4.35217 7.9238 4.42548 7.93842 4.49951 7.93842C4.57354 7.93842 4.64685 7.9238 4.71522 7.89541C4.78359 7.86702 4.84569 7.82541 4.89795 7.77297L10.8979 1.77297L10.8992 1.77361C10.8993 1.77351 10.8991 1.77371 10.8992 1.77361ZM10.8978 2.48021L5.25212 8.12591C5.25204 8.12599 5.25219 8.12584 5.25212 8.12591C5.15345 8.22486 5.03601 8.3036 4.90696 8.35718C4.77782 8.41081 4.63935 8.43842 4.49951 8.43842C4.35967 8.43842 4.2212 8.41081 4.09206 8.35718C3.96301 8.3036 3.8458 8.22509 3.74713 8.12614C3.74706 8.12606 3.74721 8.12621 3.74713 8.12614L1.12252 5.50153C1.02377 5.40277 0.945432 5.28554 0.891987 5.15651C0.838543 5.02748 0.811035 4.88919 0.811035 4.74954C0.811035 4.60988 0.838543 4.47159 0.891987 4.34256C0.945432 4.21353 1.02377 4.0963 1.12252 3.99754C1.22127 3.89879 1.33851 3.82046 1.46754 3.76701C1.59656 3.71357 1.73485 3.68606 1.87451 3.68606C2.01417 3.68606 2.15246 3.71357 2.28149 3.76701C2.41051 3.82046 2.52775 3.89879 2.6265 3.99754L4.50001 5.87105L9.74846 0.623481C9.74845 0.623491 9.74847 0.623471 9.74846 0.623481C9.94789 0.424059 10.2184 0.311996 10.5004 0.311996C10.7825 0.311996 11.053 0.424041 11.2524 0.623481C11.4519 0.82292 11.5639 1.09342 11.5639 1.37547C11.5639 1.65753 11.4519 1.92802 11.2524 2.12746L10.8988 2.48115L10.8978 2.48021Z" fill="#3DBF3B"/>
</svg>
