<?xml version="1.0" encoding="UTF-8"?>
<svg id="katman_2" data-name="katman 2" xmlns="http://www.w3.org/2000/svg" viewBox="0 0 328.06 323">
  <defs>
    <style>
      .cls-1 {
        fill: #f7ad51;
      }

      .cls-2 {
        fill: #f8f3e9;
      }

      .cls-3 {
        fill: #fbc172;
      }

      .cls-4 {
        fill: #8b4106;
      }

      .cls-5 {
        fill: #121e19;
      }
    </style>
  </defs>
  <g id="katman_2-2" data-name="katman 2">
    <g>
      <path class="cls-5" d="m63.1,278.37c-5.22-7.39-9.12-15.42-11.66-24.09-1.94-6.63-3.35-13.35-4.29-20.22-.48-3.53-.2-7.06-.76-10.59-.36-2.31-1.48-2.42-3.02-2.42-3.97,0-7.84-.46-11.56-1.9-5.31-2.06-10.49-4.3-14.37-8.76-1.07-1.22-2.68-1.94-3.59-3.38.13-.51-.06-.76-.6-.71-.25-.29-.49-.58-.74-.87.07-.7-.1-1.19-.95-1.07-.34-.43-.67-.86-1.01-1.29,0-1.22-.56-2.04-1.71-2.45-5.04-6.81-7.74-14.45-8.08-22.92.3-1.67.31-3.35,0-5.02.12-5.36,1.08-10.6,2.79-15.64,1.95-5.74,4.32-11.32,6.36-17.03,1.19-3.33,1.94-6.81,3.21-10.11.76-1.98.6-4.15,1.56-6.04.34.1.57-.04.64-.36.08-.4-.03-.71-.51-.74.17-.42.35-.83.52-1.25.76-.51,1.35-1.07.66-2.05.14-2.52.92-4.93,1.37-7.38.95-5.14,1.87-10.29,3.14-15.37.26-1.05.57-2.08.86-3.11.19-.02.44,0,.55-.09.16-.15.13-.37-.15-.44.05-.45.1-.91.14-1.36.96-.11.71-.7.49-1.27.14-.54.28-1.08.42-1.62,1.39-.64.97-1.94,1.1-3.05,1.94-6.04,5.18-11.35,8.7-16.6,3.15-4.7,6.94-8.73,10.92-12.64,2.37-2.33,5.11-4.22,7.88-6.12,3.17-2.18,6.4-4.14,9.81-5.88,3.16-1.62,6.45-2.96,9.64-4.5,2.78-1.35,5.6-2.92,7.83-5,3.27-3.04,6.58-6.05,9.85-9.09.53.06,1.18.29,1.12-.66.27-.26.54-.52.81-.77.57.09,1.18.25,1.12-.69.49-.36.99-.72,1.48-1.09.56.05,1.05.01.95-.77.14-.08.29-.16.43-.24.58.08,1.07.04,1.02-.75.62-.39,1.24-.78,1.86-1.17.6.1,1.08.04,1-.75,1.3-1.54,3.16-2.33,4.82-3.28,10.91-6.31,22.55-10.83,34.88-13.44,6.09-1.29,12.31-1.73,18.52-2.07,4.54-.25,9.09-.43,13.62.02,4.51.46,9.01.99,13.5,1.68,5.68.87,11.26,2.13,16.68,3.98,6,2.05,11.9,4.37,17.61,7.19,5.26,2.59,10.04,5.96,15.12,8.82.2.11.32.35.48.52.04.99.61,1.31,1.53,1.17.13.09.26.18.39.28-.08.51.1.75.64.62,5.65,4.81,11.05,9.97,17.25,14.05,5.09,3.35,10.79,5.64,16.3,8.26,2.85,1.36,5.61,3.02,8.14,4.91,4.17,3.12,8.44,6.15,11.95,10.07.31.35.56.76.83,1.14.04.49.02,1.03.76.94.25.28.5.56.74.84-.08.61-.09,1.17.81,1,.15.02.24.11.26.27-.17.51-.06.82.56.74,3.12,4.52,6.2,9.07,8.18,14.24,1.23,3.21,2.41,6.43,3.59,9.65,2.28,6.21,2.64,12.84,4.62,19.1.35,1.1.29,2.33.41,3.5-.31.65-.6,1.3.49,1.49.06.46.12.91.18,1.37-.4.89-.2,1.57.69,2.02.1.92.19,1.84.29,2.76-.41.91-.28,1.63.75,2.01.91,5.52,2.59,10.84,4.41,16.1,3.14,9.09,7.35,17.82,9.57,27.21,2.24,9.49,1.22,18.77-2.84,27.67-1.53,3.34-3.21,6.65-5.82,9.28-2.87,2.89-2.71,5.9-1.65,9.58,1.84,6.37,3.27,12.84,3.08,19.63-.23,8.34-2.54,16.06-5.55,23.71-3.9,9.95-11.17,16.83-20.14,21.92-6.3,3.58-13.18,5.77-20.48,7.03-6.03,1.04-12.09.77-18.07,1.73-.23.04-.6-.05-.69.08-2.2,3.04-5.18,5.48-6.86,8.9-.28.57-.21,1.49.03,2.12,3.05,7.95-1.66,15.67-7.64,19.47-5.2,3.3-10.86,4.12-16.66,4.88-9.62,1.26-19.3.74-28.92.37-6.88-.26-13.63-2.02-18.59-7.52-.68-.75-1.38-.95-2.29-.95-8.24,0-16.47,0-24.71-.03-1.08,0-2.03.23-2.63,1.22-.49-.14-.78-.03-.73.55-.41.45-.82.89-1.22,1.34-.55-.1-1.2-.37-1.14.63-4.27,2.48-8.84,3.87-13.78,4.42-9.39,1.05-18.79.64-28.17.34-6.55-.21-13.01-1.68-18.64-5.36-4.33-2.83-7.13-6.88-8.48-11.9,1.13-1.79.95-3.62.14-5.46.99-3.2.75-5.99-1.77-8.63-1.79-1.88-3.32-4.06-5.07-6.03.12-.54.38-1.16-.59-1.15-.24-.3-.48-.6-.72-.9.07-.55.1-1.07-.7-1.04-.09-.13-.18-.26-.27-.39.1-.61.03-1.09-.78-.98-.08-.14-.16-.28-.23-.42.1-.95-.05-1.76-1.18-1.97l-.04.02h0ZM200.76,21.32l.05.03c-.53-.57-1.24-.73-1.97-.86-.12-.12-.26-.15-.42-.1-.74-.53-1.57-.78-2.46-.86-.13-.1-.27-.13-.43-.08-3.12-1.18-6.31-2.11-9.66-2.38h0c-2.95-.93-5.94-1.63-9.07-1.36-.52-.35-1.07-.55-1.73-.59-2.82-.15-5.63-.37-8.45-.57-.09-.24-.22-.31-.41-.09-.48,0-.95-.02-1.43-.03-.18-.03-.35-.06-.53-.08h-.9c-.19,0-.39.02-.58.03h-.87c-.48-.27-.96-.28-1.42.04l-1,.05c-.17-.21-.32-.2-.47.02-.47.02-.95.03-1.42.05-.81-.45-1.6-.46-2.36.1-2.35.87-4.96.03-7.28,1.09-2.67-.19-5.21.43-7.73,1.22h.04c-5.2.88-10.24,2.25-14.98,4.67-2.29,1.17-4.89,1.66-7.05,3.15-.83.42-1.66.84-2.49,1.26-4.91,2.14-9.39,4.97-13.71,8.12-6.32,4.6-11.73,10.25-17.83,15.09-.18.16-.37.32-.55.47l.02-.02c-.91-.22-1.7.14-2.54.43-5.16,1.82-9.7,4.87-14.45,7.46-13.53,7.36-23.22,18.24-29.05,32.51-3.61,8.83-5.22,18.21-7.21,27.47-2.9,13.5-6.59,26.73-11.57,39.64-2.28,5.9-3.9,12.04-3.49,18.6.69,10.75,5.02,19.45,13.51,26.06,3.86,3,8.24,5.16,13.07,5.55,18.39,1.49,31.42-12.52,32.13-29.28.24-5.65.46-11.26.06-16.94-.64-9.07-.78-18.18-.98-27.27-.26-11.73-.51-23.45-.98-35.18-.24-5.95-.76-11.84-2.16-17.64-.7-2.9-.32-5.55,2.19-7.56,2.67-1.21,4.08-.72,5.27,1.91.93,2.04,1.6,4.16,1.89,6.4.33,1.16.17,2.38.3,3.53.66,5.48.41,11,.82,16.49v.75c0,.22.02.45.02.67,0,.25-.02.49-.03.74.02.23.04.46.06.69-.41,1.35-.43,2.69,0,4.04.04.29.08.58.11.87-.05.23-.09.46-.14.69,0,.23.02.46.03.69l-.15.56c-.3,3.57.36,7.1.47,10.65.03.61.07,1.23.1,1.84v1.04c-.57,4.01.13,8.04.13,12.05,0,5.41.47,10.88.7,16.33.23,5.42.12,10.85,1.08,16.21-.03,7.3-1.42,14.4-3.05,21.47-1.69,4.92-3.91,9.59-7.15,13.68-1.25,1.58-.73,2.63.43,3.84,5.71,5.98,12.04,11.23,18.93,15.78,10.42,6.87,21.82,11.48,33.75,15.01,10.99,3.25,22.26,4.39,33.61,5.08,6.09.37,12.14-.56,18.19-1,3.96-.28,7.92-.93,11.81-1.78,5.45-1.2,10.82-2.61,16.11-4.64,4.59-1.77,9.34-3.24,13.84-5.27,8.72-3.92,16.55-9.29,23.98-15.25,3.58-2.87,6.54-6.4,9.68-9.74.9-.95,1.4-1.92.36-3.3-3.43-4.53-5.51-9.74-7.11-15.14-1.55-5.83-2.16-11.81-2.86-17.78.38-3.26.94-6.51,1.09-9.78.29-6.25.59-12.51.82-18.76.31-8.26,1.11-16.49,1.09-24.77-.03-12.84-.33-25.69,1.93-38.43.84-4.77,2.02-6.1,6.65-6.23,1.76,1.4,2.21,3.46,1.81,5.37-1.57,7.58-1.68,15.27-1.67,22.93.02,15.1-.69,30.17-1.78,45.22-.23,3.21.22,6.51-.2,9.6-1.18,8.67-1.69,17.3.16,25.86,1.54,7.13,4.21,13.83,10.07,18.72,8.98,7.5,19.23,9.4,29.99,5.36,13.59-5.09,20.87-18.44,20.07-31.79-.36-5.96-1.94-11.75-4.27-17.28-4.49-10.67-8.36-21.51-10.61-32.92-2.37-12.02-4.36-24.13-9.42-35.48-3.9-8.76-9.43-16.2-16.8-22.22-7.58-6.19-16.3-10.6-24.93-15.09-.92-.48-1.81-1.05-2.93-.82-.64-1.21-2.01-1.48-2.96-2.28-4.27-3.58-8.4-7.33-12.76-10.78-7.75-6.13-16.1-11.3-25.41-14.79-.28-.4-.68-.46-1.12-.44l-.08-.09-.11.05c-.28-.49-.77-.47-1.23-.5h-.02Zm100.94,213.9c-.46.29-.95.56-1.14,1.13-.9.5-1.81.99-2.7,1.52-2.65,1.59-5.72,2.41-8.6,2.18-3.87-.31-7.84-1.13-11.17-3.52-1.46-1.05-2.12-.71-2,1.11.36,5.89-1.31,11.46-2.8,17.04-1.66,6.21-4.17,12.09-7.4,17.96,8.28-.82,15.88-2.69,22.61-7.15,14.02-9.28,21.2-22.22,20.6-39.21-.65-.88-.75-.92-1.17.1-1.37,3.38-3.64,6.12-6.11,8.72l-.12.12Zm-203.47,73.74l.06.16.07-.15c11.01-.03,22.02-.06,33.02-.11,5.6-.03,8.06-4.91,6.67-9.69-1.71-5.89-6-9.16-11.35-11.46-5.52-2.37-11.31-2.05-17.06-1.79-2.59.11-5.44.51-7.63,1.74-3.37,1.89-6.66,4.19-9.03,7.41-1.87,2.56-3.41,5.24-2.15,8.64,1.28,3.47,3.67,5.27,7.39,5.26h0Zm127.29,0c5.89-.71,8.5-6.14,5.87-11.34-1.87-3.7-4.76-6.57-8.45-8.42-8.79-4.39-18.05-4.84-27.19-1.7-5.26,1.81-9.8,5.22-11.48,11.13-1.52,5.35,1.83,10.16,7.38,10.23,11.25.14,22.5.09,33.75.12l.06.14.05-.15h.01Zm-76.97-7.09v.15h.16c7.83,0,15.67,0,23.5-.04.83,0,1.9.42,2.19-1.1,2.32-12.14,10.79-18.17,21.71-21.81,5.17-1.72,10.47-1.5,15.77-1.48,7.38,1.02,14.07,3.71,19.98,8.3,1.18.92,2.25,2.78,3.55,2.52,1.22-.25,2.12-2.02,3.18-3.1,10.3-10.57,17.8-22.63,21.46-37.17,2.61-10.36,2.68-20.7,2.08-31.17-.06-1.11-.32-2.36-1.16-3.48-1.31-1.75-1.71-1.98-3.05-.27-6.37,8.05-14.23,14.43-22.86,19.83-16.39,10.25-34.17,16.5-53.44,18.82-8.15.98-16.24,1.41-24.41,1.05-.55-.34-1.11-.3-1.67-.04-.57.39-1.23.37-1.86.29-3.66-.45-7.31-1.03-10.98-1.4-9.4-.95-18.52-3.25-27.36-6.42-18.35-6.58-35.33-15.47-48.08-30.85-.44-.53-1.02-.94-1.56-.99-.95-.08-4.44,3.78-4.53,4.81-.77,9.8.19,19.46,2.96,28.85,4.21,14.26,11.2,27.02,21.49,37.88,2.78,2.93,2.76,2.94,5.95.37.68-.55,1.41-1.04,2.14-1.52,5.66-3.78,11.9-5.89,18.66-6.54,7.88.1,15.34,1.34,22.4,5.46,7.59,4.43,12.38,10.39,13.78,19.06h0Zm146.21-82.26c-.44.02-.86-.07-1.19.07-3.73,1.55-7.67,1.68-11.6,1.71-4.92.04-4.92-.04-4.89,4.8.02,2.87.52,3.39,3.41,3.44,5.11.09,11.88-4.5,14.27-10.02h0Z"/>
      <path class="cls-4" d="m74.39,299.87c.82,1.84.99,3.67-.14,5.46-.23-1.83-.42-3.66.14-5.46Z"/>
      <path class="cls-3" d="m.76,172.68c.31,1.67.3,3.35,0,5.02-1.02-1.67-1.02-3.35,0-5.02Z"/>
      <path class="cls-4" d="m8.84,200.62c1.15.41,1.72,1.23,1.71,2.45-.81-.65-1.37-1.48-1.71-2.45Z"/>
      <path class="cls-4" d="m23.91,85.77c-.13,1.1.29,2.4-1.1,3.05.13-1.1.14-2.25,1.1-3.05Z"/>
      <path class="cls-4" d="m312.89,122.9c-1.03-.38-1.16-1.1-.75-2.01.48.59.74,1.26.75,2.01Z"/>
      <path class="cls-4" d="m15.98,119.47c.69.98.1,1.54-.66,2.05.11-.72.12-1.47.66-2.05Z"/>
      <path class="cls-4" d="m63.1,278.37c1.14.21,1.29,1.02,1.18,1.97-.81-.41-1.08-1.14-1.18-1.97Z"/>
      <path class="cls-4" d="m311.86,118.13c-.9-.44-1.09-1.13-.69-2.02.42.61.66,1.28.69,2.02Z"/>
      <path class="cls-4" d="m311,114.74c-1.09-.19-.8-.84-.49-1.49.63.34.61.9.49,1.49Z"/>
      <path class="cls-4" d="m235.07,23.65c-.91.14-1.48-.17-1.53-1.17.65.21,1.17.58,1.53,1.17Z"/>
      <path class="cls-4" d="m22.39,90.44c.22.57.47,1.16-.49,1.27-.18-.56.12-.93.49-1.27Z"/>
      <path class="cls-4" d="m14.8,122.76c.48.03.6.34.51.74-.07.33-.3.46-.64.36-.07-.38-.31-.78.12-1.1h0Z"/>
      <path class="cls-4" d="m11.57,204.35c.85-.11,1.02.37.95,1.07-.55-.16-.85-.52-.95-1.07Z"/>
      <path class="cls-4" d="m143.33,317.83c-.06-1,.59-.73,1.14-.63-.28.39-.63.67-1.14.63Z"/>
      <path class="cls-4" d="m292.89,65.75c-.9.17-.89-.39-.81-1,.48.17.79.46.81,1Z"/>
      <path class="cls-4" d="m291.32,63.91c-.75.09-.72-.45-.76-.94.53.09.77.42.76.94Z"/>
      <path class="cls-4" d="m66.97,284.07c.96-.01.71.6.59,1.15-.2-.38-.39-.76-.59-1.15Z"/>
      <path class="cls-4" d="m65.57,282.13c.8-.03.77.49.7,1.04-.45-.2-.62-.59-.7-1.04Z"/>
      <path class="cls-4" d="m89.64,25.28c.06.95-.58.72-1.12.66.37-.22.74-.44,1.12-.66Z"/>
      <path class="cls-4" d="m91.58,23.81c.06.94-.55.78-1.12.69.28-.38.48-.89,1.12-.69Z"/>
      <path class="cls-4" d="m64.52,280.76c.81-.11.88.37.78.98-.42-.2-.73-.49-.78-.98Z"/>
      <path class="cls-4" d="m94,21.96c.11.78-.39.81-.95.77.18-.43.5-.68.95-.77Z"/>
      <path class="cls-4" d="m95.46,20.98c.05.79-.44.83-1.02.75.21-.42.51-.73,1.02-.75Z"/>
      <path class="cls-4" d="m98.3,19.06c.08.8-.4.86-1,.75.21-.42.49-.73,1-.75Z"/>
      <path class="cls-4" d="m145.69,315.86c-.05-.58.25-.69.73-.55-.11.37-.34.57-.73.55Z"/>
      <path class="cls-4" d="m21.75,93.07c.28.07.31.29.15.44-.12.11-.37.07-.55.09.13-.18.27-.36.4-.53Z"/>
      <path class="cls-4" d="m293.7,66.76c-.62.07-.73-.23-.56-.74.33.14.56.36.56.74Z"/>
      <path class="cls-4" d="m236.1,24.54c-.54.13-.72-.11-.64-.62.4.01.59.24.64.62Z"/>
      <path class="cls-4" d="m13.26,206.29c.54-.05.73.2.6.71-.4-.07-.62-.29-.6-.71Z"/>
      <path class="cls-1" d="m82.86,169.68c-.96-5.37-.85-10.8-1.08-16.21-.23-5.45-.7-10.92-.7-16.33,0-4.01-.7-8.04-.13-12.05,2.36,1.02,3.38-.89,4.41-2.25.92-1.21,1.53-2.77.09-4.21-.21-.21-.87-.48-.16-.86,1.7-.91.81-1.52-.23-2.1-.99-.55-1.9-.96-.55-2.23.51-.48.49-1.59.57-2.43.3-2.92-1.73-5.76-.28-8.74.07-.15-.25-.56-.47-.77-.52-.5-.44-.88,0-1.41,1.75-2.07,2.08-4.72,2.12-7.19.02-1.27.27-3.23-2.17-4.15-1.89-.71-4.29-2.74-3.57-5.34.56-2.02-.38-1.51-1.36-1.56-.29-2.23-.97-4.35-1.89-6.4-1.19-2.63-2.6-3.12-5.27-1.91,1.07-2.99,2.04-6.02,3.24-8.96,1.88-4.62,3.83-9.23,7.21-13.03.13.06.25.12.38.18.04-.22.07-.44.11-.67l-.03.02c1.34-.16,2.17-1.17,3.19-1.89,1.86-1.32,3.31-3.01,4.89-4.61,1.89-1.92,4.3-3.31,6.25-5.18,1.17-1.12,2.1-2.04,3.86-1.53,1.63.47.74-.58.6-1.15h0c.52-.13,1.53.5,1.48.01-.16-1.77,1.47-1.84,2.22-2.67,2.11-2.34,4.87-3.78,7.83-4.67,1.86-.56,2.03-1.92,2.32-3.38.83-.42,1.66-.84,2.49-1.26-.1.87.1,1.78.95,1.96.68.14,1.02-.67,1.32-1.33.16-.36.95-.84,1.12-.73,2.86,1.78,4.82-2.53,7.62-1.1.31.16.43-.39.45-.69.05-.69.31-1.22.99-1.49.07.04.14.07.21.11-.07-.03-.14-.07-.21-.1,2.38-.64,4.3-2.35,6.72-2.88.07.04.14.08.21.11-.07-.04-.14-.08-.21-.11,1.09-.27,2.22-.47,2.84-1.57h-.04c.35.29.76.88,1.04.82,2.28-.5,4.6-.91,6.69-2.04,2.32-1.06,4.93-.22,7.28-1.09.79-.03,1.57-.07,2.36-.1.47-.02.95-.03,1.42-.05.16,0,.32-.01.47-.02.33-.02.67-.03,1-.05.48.24.95.23,1.42-.04h.87c.21.24.4.26.58-.03h.9c.15.22.32.25.53.08.48,0,.95.02,1.43.03l.19.1h.22c2.82.19,5.63.41,8.45.56.67.04,1.21.24,1.73.59,2.98.72,5.95,1.52,9.07,1.36h0c.09.78.4,1.58,1.31,1.21,1.21-.49,2.17.1,3.22.35,1.69.4,3.36.9,5.13.81.16-.05.3-.03.43.08.39,1.51,1.61.68,2.46.86.16-.05.3-.02.42.1.22,1.28,1.22.79,1.97.86l-.05-.03c.26.53.75.51,1.23.5l.11-.05.08.09c.25.46.69.45,1.12.44,9.31,3.49,17.66,8.66,25.41,14.79,4.37,3.45,8.49,7.21,12.76,10.78.95.8,2.32,1.07,2.96,2.28,4.34,6.16,7.6,12.86,10.04,19.98.28.83.65,1.64.47,2.55-4.63.13-5.8,1.46-6.65,6.23-2.26,12.74-1.96,25.59-1.93,38.43.02,8.28-.78,16.51-1.09,24.77-.23,6.25-.52,12.5-.82,18.76-.15,3.27-.71,6.52-1.09,9.78-1.6.94-2.75-.71-4.23-.73-3.58-.06-7.14-.06-10.71.18-2.29.15-4.55.13-5.2,3.03-.06.26-.39.49-.63.69-2.57,2-3.98,4.59-4.11,7.87-1.12-1.57-1.72-3.39-2.39-5.16-3.89-10.16-7.4-20.45-13.33-29.73-9.41-14.73-22.46-22.95-40.16-23.1-7.79-.06-15.32,1.05-22.14,5.32-4.24,2.66-8.01,5.76-11.23,9.57-5.46,6.46-9.86,13.62-13.88,21.03-1.28.78-1.53,2.16-1.99,3.42-1.58,4.24-2.84,8.58-4.54,12.78-.48,1.19-1.35,1.56-2.16,1.87-1.01.39-.93-1.06-1.45-1.45-2.05-1.52-2.58-4.21-5.2-5.5-4.14-2.04-8.07-2.17-12.28-.91-1.63.49-3.27.68-4.87-.13h.02Zm41.58-39.35c.75-8.69-7.87-15.42-13.43-15.99-8.46-.87-16.82,8.98-16.38,16.85.42,7.5,7.38,15.64,14.62,15.35,9.31-.37,15.59-8.43,15.19-16.2h0Zm104.65.62c0-3.7-1.45-8.03-3.86-10.83-7.13-8.33-18.96-7.8-23.95,3.04-3.94,8.56,1.34,18,6.51,21.23,2,1.25,4.25,2.26,6.48,2.13,8.74-.5,14.73-6.82,14.81-15.57h0Z"/>
      <path class="cls-2" d="m115.35,159.6c4.02-7.41,8.42-14.57,13.88-21.03,3.22-3.81,6.99-6.92,11.23-9.57,6.82-4.28,14.35-5.38,22.14-5.32,17.7.14,30.74,8.36,40.16,23.1,5.93,9.28,9.44,19.57,13.33,29.73.68,1.77,1.27,3.59,2.4,5.16,4.66,11.92,16.9,16.39,27.74,6.75,1.61,5.41,3.69,10.61,7.11,15.14,1.04,1.38.54,2.34-.36,3.3-3.14,3.33-6.1,6.87-9.68,9.74-7.43,5.96-15.26,11.33-23.98,15.25-4.51,2.03-9.25,3.5-13.84,5.27-5.28,2.03-10.65,3.44-16.11,4.64-3.88.85-7.85,1.5-11.81,1.78-6.05.43-12.1,1.37-18.19,1-11.35-.69-22.62-1.83-33.61-5.08-11.92-3.53-23.33-8.14-33.75-15.01-6.9-4.55-13.22-9.8-18.93-15.78-1.16-1.21-1.68-2.25-.43-3.84,3.24-4.09,5.46-8.76,7.15-13.68.68.2,1.39.34,2.04.61,11.33,4.64,21.12.47,25.97-10.8,2.34-5.43,3.95-11.11,6.14-16.59.62-1.54,1.55-3,1.38-4.77h.02Zm45.94-20.15c-2.16,0-4.33-.18-6.47.06-1.68.19-3.31.87-4.95,1.37-5.09,1.56-8.8,6.23-8.09,10.68,1.14,7.14,5.89,15.62,15.42,17.95,1.36.33,1.71,1.38,1.59,1.82-.36,1.42-.05,2.9-.77,4.29-3.23,6.24-13.13,10.2-20.43,6.61-3.22-1.58-5.35-4.12-7.49-6.8-1.31-1.64-3.9-2.08-5.29-.93-1.67,1.38-1.76,3.21-.85,5.1,3.7,7.61,10.51,10.46,18.26,11.57,1.79.26,1.91.78,1.95,2.26.13,5.44,1.79,10.41,5.19,14.7,6.94,8.77,19.28,8.21,25.98-.7,3.23-4.29,5.11-8.99,4.76-14.42-.08-1.24.23-1.62,1.58-1.86,2.34-.42,4.74-.73,6.95-1.8,4.48-2.17,8.67-4.64,10.77-9.47.98-2.25.3-4.56-1.55-5.61-1.54-.87-4.17-.04-5.17,2.01-1.56,3.17-4.18,4.85-7.26,6.2-8.31,3.62-18.88-2.17-19.73-10.22-.15-1.45.12-2.32,1.59-2.64,7.69-1.68,12.09-6.91,14.69-13.89.84-2.24,1.56-4.66.76-7.14-1.31-4.04-4.27-6.41-8.15-7.62-4.31-1.34-8.79-1.65-13.29-1.49v-.03h0Z"/>
      <path class="cls-4" d="m254.94,72.67c.18-.91-.19-1.72-.47-2.55-2.44-7.12-5.7-13.82-10.04-19.98,1.12-.22,2.01.34,2.93.82,8.64,4.49,17.35,8.9,24.93,15.09,7.37,6.02,12.9,13.46,16.8,22.22,5.05,11.35,7.05,23.46,9.42,35.48,2.25,11.41,6.12,22.25,10.61,32.92,2.33,5.53,3.91,11.32,4.27,17.28.8,13.35-6.48,26.7-20.07,31.79-10.76,4.04-21.01,2.14-29.99-5.36-5.87-4.9-8.53-11.59-10.07-18.72-1.86-8.56-1.35-17.19-.16-25.86.42-3.09-.03-6.39.2-9.6,1.09-15.05,1.8-30.12,1.78-45.22,0-7.66.11-15.35,1.67-22.93.4-1.92-.05-3.97-1.81-5.37h0Z"/>
      <path class="cls-4" d="m82.64,51.56c-3.38,3.8-5.33,8.41-7.21,13.03-1.2,2.94-2.17,5.97-3.24,8.96-2.51,2-2.89,4.66-2.19,7.56,1.39,5.8,1.92,11.69,2.16,17.64.47,11.72.72,23.45.98,35.18.2,9.09.35,18.2.98,27.27.4,5.68.18,11.3-.06,16.94-.71,16.76-13.74,30.77-32.13,29.28-4.83-.39-9.21-2.55-13.07-5.55-8.49-6.61-12.83-15.31-13.51-26.06-.42-6.57,1.21-12.7,3.49-18.6,4.98-12.9,8.67-26.14,11.57-39.64,1.99-9.26,3.6-18.64,7.21-27.47,5.83-14.27,15.53-25.15,29.05-32.51,4.76-2.59,9.29-5.63,14.45-7.46.84-.3,1.63-.66,2.54-.43-.19.47-.38.93-.56,1.4l.03-.02-.48.48h0Z"/>
      <path class="cls-3" d="m157.19,252.91c8.17.37,16.25-.06,24.41-1.05,19.27-2.32,37.05-8.57,53.44-18.82,8.63-5.4,16.49-11.78,22.86-19.83,1.35-1.7,1.75-1.47,3.05.27.83,1.12,1.09,2.37,1.16,3.48.61,10.46.53,20.81-2.08,31.17-3.66,14.53-11.16,26.6-21.46,37.17-1.06,1.08-1.96,2.85-3.18,3.1-1.3.27-2.37-1.6-3.55-2.52-5.91-4.59-12.59-7.28-19.98-8.3-.16-5.02-.35-10.04-.46-15.07-.03-1.59-.53-2.66-2.25-2.03-4.66,1.7-9.5,2.5-14.36,3.34-9.68,1.67-19.36,2.86-29.25,2.88-7.65.01-15.22-.13-22.8-1.09-9.38-1.19-18.72-2.51-27.77-5.35-1.55-.49-2.06-.32-2.2,1.45-.44,5.21-.18,10.43-.41,15.64-6.76.65-13,2.76-18.66,6.54-.73.49-1.46.98-2.14,1.52-3.2,2.57-3.17,2.56-5.95-.37-10.29-10.86-17.28-23.61-21.49-37.88-2.77-9.4-3.74-19.05-2.96-28.85.08-1.03,3.58-4.89,4.53-4.81.54.05,1.12.45,1.56.99,12.75,15.37,29.73,24.26,48.08,30.85,8.84,3.17,17.95,5.47,27.36,6.42,3.67.37,7.32.95,10.98,1.4.62.08,1.29.1,1.85-.29.55.27,1.11.24,1.67.04h0Z"/>
      <path class="cls-2" d="m112.36,277.35c.23-5.21-.02-10.43.41-15.64.15-1.77.65-1.93,2.2-1.45,9.05,2.84,18.4,4.16,27.77,5.35,7.58.96,15.16,1.11,22.8,1.09,9.89-.02,19.57-1.21,29.25-2.88,4.86-.84,9.7-1.64,14.36-3.34,1.72-.63,2.22.44,2.25,2.03.11,5.02.3,10.05.46,15.07-5.3-.01-10.61-.24-15.77,1.48-10.92,3.64-19.39,9.67-21.71,21.81-.29,1.52-1.36,1.1-2.19,1.1-7.83.04-15.67.03-23.5.04v-.15h-.16c-1.41-8.66-6.19-14.62-13.78-19.05-7.06-4.12-14.52-5.35-22.4-5.46h0Z"/>
      <path class="cls-2" d="m225.39,308.97c-11.25-.03-22.5.03-33.75-.12-5.55-.07-8.9-4.87-7.38-10.23,1.68-5.91,6.22-9.32,11.48-11.13,9.13-3.14,18.39-2.68,27.19,1.7,3.7,1.85,6.58,4.71,8.45,8.42,2.63,5.21.02,10.63-5.87,11.34h-.12v.02h0Z"/>
      <path class="cls-2" d="m98.22,308.96c-3.72.01-6.11-1.79-7.39-5.26-1.26-3.41.28-6.09,2.15-8.64,2.36-3.22,5.65-5.51,9.03-7.41,2.19-1.23,5.04-1.63,7.63-1.74,5.74-.25,11.54-.58,17.06,1.79,5.35,2.31,9.64,5.57,11.35,11.46,1.39,4.78-1.07,9.66-6.67,9.69-11.01.05-22.02.07-33.02.11h-.14Z"/>
      <path class="cls-3" d="m309.1,226.27c.6,16.99-6.58,29.93-20.6,39.21-6.73,4.46-14.33,6.33-22.61,7.15,3.23-5.87,5.74-11.75,7.4-17.96,1.49-5.59,3.16-11.15,2.8-17.04-.11-1.82.54-2.16,2-1.11,3.34,2.39,7.3,3.21,11.17,3.52,2.87.23,5.95-.59,8.6-2.18.88-.53,1.8-1.01,2.7-1.52.68-.07,1.66.17,1.14-1.13l.12-.12c1.23.6,1.7-.5,2.28-1.12,2.13-2.26,3.81-4.83,4.99-7.71h0Z"/>
      <path class="cls-3" d="m115.35,159.6c.16,1.77-.77,3.23-1.38,4.77-2.19,5.48-3.79,11.16-6.14,16.59-4.86,11.27-14.64,15.44-25.97,10.8-.65-.27-1.36-.41-2.04-.61,1.63-7.07,3.02-14.17,3.05-21.47,1.6.82,3.24.62,4.87.13,4.21-1.26,8.15-1.13,12.28.91,2.62,1.29,3.15,3.98,5.2,5.5.52.39.45,1.84,1.45,1.45.8-.31,1.67-.68,2.16-1.87,1.7-4.2,2.96-8.55,4.54-12.78.47-1.26.72-2.64,1.99-3.42h0Z"/>
      <path class="cls-3" d="m246.23,188.42c-10.84,9.64-23.09,5.17-27.74-6.75.13-3.27,1.54-5.87,4.11-7.87.25-.19.57-.42.63-.69.65-2.9,2.91-2.88,5.2-3.03,3.57-.24,7.14-.24,10.71-.18,1.48.03,2.63,1.67,4.23.73.7,5.97,1.31,11.95,2.86,17.78h0Z"/>
      <path class="cls-3" d="m79.36,81.85c.97.05,1.92-.46,1.36,1.56-.72,2.6,1.68,4.63,3.57,5.34,2.44.92,2.19,2.88,2.17,4.15-.04,2.47-.37,5.12-2.12,7.19-.45.53-.53.91,0,1.41.22.21.54.62.47.77-1.45,2.98.58,5.82.28,8.74-.09.84-.07,1.95-.57,2.43-1.35,1.28-.44,1.68.55,2.23,1.04.58,1.93,1.18.23,2.1-.71.38-.05.65.16.86,1.44,1.44.83,3-.09,4.21-1.03,1.36-2.05,3.27-4.41,2.25v-1.04c.93-.66.28-1.24-.1-1.84-.1-3.55-.76-7.08-.47-10.65.33-.11.39-.3.15-.56,0-.23-.02-.46-.03-.69.24-.19.29-.42.14-.69-.04-.29-.08-.58-.11-.87.26-1.35.36-2.69,0-4.04-.02-.23-.04-.46-.06-.69.4-.23.35-.48.03-.74,0-.22-.02-.45-.03-.67.34-.25.31-.5,0-.75-.4-5.49-.16-11-.82-16.49-.14-1.15.02-2.36-.3-3.53h0,0Z"/>
      <path class="cls-2" d="m294.75,219.61c-2.39,5.52-9.16,10.11-14.27,10.02-2.89-.05-3.4-.57-3.41-3.44-.03-4.84-.03-4.76,4.89-4.8,3.93-.03,7.88-.17,11.6-1.71.33-.14.75-.05,1.19-.07h0Z"/>
      <path class="cls-3" d="m83.11,51.09c.19-.47.38-.93.56-1.4l-.02.02c.32,0,.5-.16.55-.47,6.1-4.84,11.51-10.49,17.83-15.09,4.32-3.15,8.8-5.99,13.71-8.12-.28,1.46-.46,2.82-2.32,3.38-2.97.89-5.72,2.33-7.83,4.67-.75.84-2.38.91-2.22,2.67.05.49-.96-.14-1.48,0-.07-.04-.13-.08-.2-.12.07.04.14.08.2.12.14.57,1.03,1.62-.6,1.15-1.76-.51-2.7.41-3.86,1.53-1.94,1.87-4.36,3.26-6.25,5.18-1.58,1.6-3.03,3.29-4.89,4.61-1.02.72-1.84,1.73-3.19,1.89v-.02h.01Z"/>
      <path class="cls-3" d="m140.25,16.92c-.63,1.11-1.75,1.31-2.84,1.57h0c-2.42.54-4.35,2.24-6.72,2.88h0c-.68.26-.93.79-.99,1.49-.02.3-.14.85-.45.69-2.8-1.43-4.76,2.88-7.62,1.1-.17-.11-.96.37-1.12.73-.3.66-.64,1.47-1.32,1.33-.85-.18-1.05-1.09-.95-1.96,2.15-1.5,4.76-1.98,7.05-3.15,4.74-2.42,9.77-3.79,14.98-4.68h-.02Z"/>
      <path class="cls-1" d="m309.1,226.27c-1.18,2.88-2.87,5.45-4.99,7.71-.58.62-1.05,1.72-2.28,1.12,2.47-2.61,4.73-5.34,6.11-8.72.42-1.02.51-.98,1.17-.1h-.01Z"/>
      <path class="cls-3" d="m195.52,19.44c-1.77.09-3.44-.41-5.13-.81-1.05-.25-2.02-.84-3.22-.35-.91.37-1.21-.43-1.31-1.21,3.35.26,6.54,1.2,9.66,2.38h0Z"/>
      <path class="cls-3" d="m147.94,15.71c-2.09,1.13-4.41,1.55-6.69,2.04-.27.06-.69-.53-1.04-.82,2.52-.79,5.06-1.41,7.73-1.22Z"/>
      <path class="cls-3" d="m185.86,17.06c-3.12.16-6.09-.64-9.07-1.36,3.13-.27,6.12.43,9.07,1.36Z"/>
      <path class="cls-4" d="m80.53,104.71c.35,1.35.25,2.69,0,4.04-.42-1.35-.4-2.69,0-4.04Z"/>
      <path class="cls-3" d="m198.42,20.38c-.86-.19-2.07.64-2.46-.86.89.08,1.73.34,2.46.86Z"/>
      <path class="cls-3" d="m200.8,21.34c-.75-.07-1.75.42-1.97-.86.72.13,1.44.29,1.97.86Z"/>
      <path class="cls-1" d="m301.7,235.21c.52,1.29-.46,1.06-1.14,1.13.2-.56.68-.83,1.14-1.13Z"/>
      <path class="cls-4" d="m157.58,14.52c-.79.03-1.58.07-2.36.1.77-.56,1.55-.55,2.36-.1Z"/>
      <path class="cls-1" d="m80.85,122.21c.38.59,1.02,1.18.1,1.84-.03-.61-.07-1.23-.1-1.84Z"/>
      <path class="cls-4" d="m157.19,252.91c-.56.2-1.13.23-1.67-.04.57-.25,1.13-.3,1.67.04Z"/>
      <path class="cls-4" d="m161.89,14.36c-.47.28-.94.28-1.42.04.46-.32.94-.31,1.42-.04Z"/>
      <path class="cls-3" d="m203.29,22.29c-.43,0-.87.02-1.12-.44.44-.02.85.04,1.12.44Z"/>
      <path class="cls-3" d="m201.98,21.82c-.48,0-.97.03-1.23-.5.47.03.95.01,1.23.5Z"/>
      <path class="cls-4" d="m80.53,111c.24.26.18.45-.15.56.05-.19.1-.37.15-.56Z"/>
      <path class="cls-4" d="m166.61,14.54h-.22l-.19-.09c.19-.22.32-.15.41.09Z"/>
      <path class="cls-4" d="m164.77,14.42c-.21.17-.39.14-.53-.08.18.03.35.06.53.08Z"/>
      <path class="cls-4" d="m163.35,14.34c-.18.29-.38.27-.58.03.19,0,.39-.02.58-.03Z"/>
      <path class="cls-4" d="m84.19,49.23c-.05.31-.23.47-.55.47.18-.16.37-.32.55-.47Z"/>
      <path class="cls-4" d="m159.47,14.45c-.16,0-.32.01-.47.02.15-.22.31-.23.47-.02Z"/>
      <polygon class="cls-3" points="148.55 301.87 148.69 301.86 148.71 302.02 148.55 302.01 148.55 301.87"/>
      <polygon class="cls-4" points="98.22 308.96 98.36 308.97 98.28 309.11 98.22 308.96"/>
      <polygon class="cls-4" points="225.39 308.97 225.51 308.96 225.47 309.11 225.39 308.97"/>
      <path class="cls-4" d="m80.49,101.87c.3.25.34.5,0,.75v-.75Z"/>
      <path class="cls-4" d="m80.5,103.29c.31.26.36.51-.03.74,0-.25.02-.49.03-.74Z"/>
      <path class="cls-4" d="m80.64,109.62c.15.27.11.5-.14.69.05-.23.09-.46.14-.69Z"/>
      <path class="cls-5" d="m124.44,130.33c.4,7.77-5.88,15.83-15.19,16.2-7.24.29-14.21-7.85-14.62-15.35-.44-7.87,7.92-17.72,16.38-16.85,5.56.57,14.18,7.3,13.43,15.99h0Zm-11.03-9.88c0-2.48-.54-2.94-2.86-3.11-2.13-.15-3.09.94-3.35,2.78-.22,1.57,1.71,3.63,3.22,3.42,1.73-.24,3.3-.87,2.99-3.09Z"/>
      <path class="cls-5" d="m229.1,130.95c-.09,8.74-6.07,15.07-14.81,15.57-2.23.13-4.48-.88-6.48-2.13-5.17-3.23-10.45-12.67-6.51-21.23,4.99-10.84,16.82-11.36,23.95-3.04,2.4,2.81,3.86,7.14,3.86,10.83h0Zm-16.42-7.36c1.75,0,2.95-1.35,2.95-3.32,0-1.59-1.62-3.38-3.04-3.35-1.63.03-3.19,1.79-3.17,3.56.02,1.63,1.59,3.12,3.26,3.11h0Z"/>
      <path class="cls-3" d="m82.64,51.56l.48-.48c-.04.22-.07.44-.11.67-.13-.06-.25-.12-.38-.18h.01Z"/>
      <path class="cls-3" d="m130.67,21.38c.07.03.14.07.21.1-.07-.04-.14-.07-.21-.11h0Z"/>
      <path class="cls-3" d="m137.39,18.5c.07.04.14.08.21.11-.07-.04-.14-.08-.21-.11h0Z"/>
      <path class="cls-5" d="m161.28,139.45c4.5-.16,8.98.15,13.29,1.49,3.88,1.21,6.84,3.58,8.15,7.62.8,2.49.08,4.9-.76,7.14-2.6,6.99-7,12.21-14.69,13.89-1.47.32-1.74,1.19-1.59,2.64.85,8.05,11.42,13.85,19.73,10.22,3.08-1.34,5.71-3.02,7.26-6.2,1-2.04,3.63-2.88,5.17-2.01,1.86,1.05,2.53,3.36,1.55,5.61-2.1,4.84-6.29,7.31-10.77,9.47-2.21,1.07-4.61,1.38-6.95,1.8-1.36.24-1.66.62-1.58,1.86.35,5.44-1.54,10.13-4.76,14.42-6.7,8.91-19.04,9.47-25.98.7-3.4-4.29-5.05-9.26-5.19-14.7-.04-1.48-.15-2-1.95-2.26-7.75-1.1-14.56-3.96-18.26-11.57-.92-1.89-.83-3.71.85-5.1,1.39-1.15,3.98-.71,5.29.93,2.14,2.68,4.27,5.22,7.49,6.8,7.29,3.59,17.19-.37,20.43-6.61.72-1.39.41-2.88.77-4.29.11-.44-.24-1.49-1.59-1.82-9.53-2.33-14.27-10.81-15.42-17.95-.71-4.45,3-9.12,8.09-10.68,1.64-.5,3.27-1.18,4.95-1.37,2.13-.24,4.31-.06,6.47-.06v.03h0Zm-9.87,53.26c-.23,3.42.7,6.4,2.44,9.09,5.13,7.94,12.86,6.21,16.89-.43,1.87-3.07,1.8-6.63,2.25-10.07.15-1.19-.27-1.58-1.18-1.87-3.44-1.08-6.52-2.69-8.46-5.9-.94-1.55-1.58-1.18-2.48.1-1.78,2.53-4.19,4.45-7.11,5.38-2.15.69-3.01,1.71-2.34,3.71h-.01Zm9.67-50.88c-2.24,0-3.12.81-3.12,2.89,0,1.96,1.28,3.29,3.21,3.34,1.96.04,3.11-1.08,3.11-3.04,0-2.15-1.04-3.19-3.21-3.19h0Z"/>
      <path class="cls-1" d="m101.89,36.73c-.07-.04-.14-.08-.2-.12.07.04.13.08.2.12h0Z"/>
      <path class="cls-2" d="m113.41,120.45c.31,2.22-1.25,2.85-2.99,3.09-1.51.21-3.44-1.84-3.22-3.42.26-1.84,1.22-2.93,3.35-2.78,2.32.17,2.87.63,2.86,3.11Z"/>
      <path class="cls-2" d="m212.67,123.58c-1.67,0-3.23-1.48-3.26-3.11-.03-1.77,1.54-3.53,3.17-3.56,1.42-.03,3.05,1.76,3.04,3.35,0,1.97-1.2,3.3-2.95,3.32h0Z"/>
      <path class="cls-3" d="m151.41,192.71c-.66-2,.2-3.02,2.34-3.71,2.92-.94,5.33-2.85,7.11-5.38.9-1.28,1.54-1.65,2.48-.1,1.94,3.21,5.02,4.82,8.46,5.9.91.29,1.34.68,1.18,1.87-.44,3.44-.38,7-2.25,10.07-4.03,6.63-11.76,8.37-16.89.43-1.73-2.68-2.66-5.66-2.44-9.09h.01Z"/>
      <path class="cls-2" d="m161.08,141.83c2.17,0,3.21,1.04,3.21,3.19,0,1.96-1.16,3.08-3.11,3.04-1.93-.04-3.22-1.38-3.21-3.34,0-2.08.88-2.89,3.12-2.89h0Z"/>
    </g>
  </g>
</svg>