<?xml version="1.0" encoding="UTF-8"?>
<svg id="katman_2" data-name="katman 2" xmlns="http://www.w3.org/2000/svg" viewBox="0 0 449.88 454.56">
  <defs>
    <style>
      .cls-1 {
        fill: #f4e2dd;
      }

      .cls-2 {
        fill: #a22049;
      }

      .cls-3 {
        fill: #e37a93;
      }
    </style>
  </defs>
  <g id="katman_1" data-name="katman 1">
    <g>
      <path class="cls-3" d="m223.92,454.32c-8.83.74-17.65-.42-26.34-1.28-16.68-1.65-33.03-5.22-48.79-11.43-9.35-3.68-19.2-6.29-27.75-11.62-8.94-5.57-18.07-10.85-26.74-16.94-8.09-5.67-15.36-12.18-22.33-18.91-9.15-8.83-17.51-18.4-24.64-29.25-4.9-7.46-10.49-14.63-15.2-22.29-5.8-9.43-10.37-19.46-14.64-29.73-4.43-10.66-7.96-21.56-10.5-32.68-2.99-13.11-5.44-26.35-6.07-39.94-.46-9.93-1.55-19.89-.41-29.73,1.67-14.35,3.4-28.63,7.21-42.76,3.43-12.73,8.04-24.95,13.93-36.4,3.56-6.92,7.08-14.16,11.42-20.9,4.93-7.66,10.56-14.68,15.72-22.09,10.89-15.64,23.9-29.44,39-40.72,6.09-4.55,12.28-9.66,19.87-12.86,7.15-3.02,13.25-8.81,20.72-11.99,12.54-5.32,24.74-11.95,38.06-14.63,7.38-1.49,14.29-5.32,22.23-4.62,6.13.54,12.37-.16,18.54.07,3.54.13,5.62-2.77,9.15-3.18,9.96-1.16,19.65.22,29.48,1.06,13.95,1.19,27.56,3.78,40.93,7.75,9.81,2.91,19.69,6.06,28.88,10.23,10.47,4.75,20.2,11.39,29.98,17.7,15.47,9.98,28.99,22.12,41.54,35.41,8.37,8.87,15.87,18.5,22.45,28.75,12.1,18.85,23.21,38.26,29.49,59.97,4.32,14.94,7.88,29.96,9.6,45.59,2.83,25.64.34,50.55-6.05,75.3-6.53,25.28-17.82,48.52-31.71,70.4-3.76,5.92-8.4,11.65-12.84,17.3-6.9,8.77-14.82,16.46-22.54,24.38-14.74,15.14-31.94,26.85-50.82,36.42-16.69,8.46-34.25,14.32-52.24,18.79-9.64,2.4-19.79,2.79-29.72,3.99-6.27.76-12.56,1.33-18.89.86ZM116.32,148.41c-.31,8.44.06,16.87-.51,25.35-.75,11.19-1.73,22.62,1.12,33.72,2.59,10.11,6.18,19.97,10.73,29.33,5.03,10.35,4.53,20.27-.38,30.12-3.32,6.65-4.27,13.93-2.4,20.4,3.84,13.29,12.4,22.82,26.56,26.57,4.14,1.1,8.45,1.7,12.42,3.95,9.87,5.61,15.97,15.04,24.04,22.45,1.44,1.32,1.59,3.25,3.54,4.5,3.59,2.3,7.36,4.69,9.95,8.27,7.55,10.44,16.57,19.64,25.39,28.93,7.61,8.02,14.33,16.73,21.49,25.1,1.98,2.31,2.99,5.43,4.55,8.11.57.98,1.42,2.18,2.66,1.93,1.54-.32,1.02-1.92,1.01-2.95-.02-3.59-.75-7.26-.24-10.75,2.16-14.86,10.55-25.88,22.67-34.04,14.75-9.95,29.96-19.23,40.78-33.91,6.11-8.29,11.13-17.1,14.44-26.88,4.16-12.29,4.87-24.95,5.39-37.83.6-14.9-3.18-28.68-9.02-41.79-5.63-12.63-5.71-24.87-1.65-37.57.45-1.4.85-3.9,2.92-3.32,1.43.4,1.74,2.65,1.64,4.33-.6,10.94,2.11,21.36,5.02,31.74,2.17,7.72,6.57,13.99,12.65,19.08,1.32,1.1,3.33,2.42,4.89.59,1.28-1.5.54-3.28-.54-5-6.38-10.21-6.08-16.11,1.03-25.83,5.03-6.87,12.15-11.2,19.31-15.3,7.06-4.05,13.27-8.89,17.72-15.75,4.65-7.18,7.42-15.31,5.38-23.56-2.62-10.62-9.78-18.46-18.67-25-11.46-8.44-24.73-13.26-37.1-19.87-8.2-4.39-16.49-8.9-23.42-15.04-8.92-7.9-18.42-12.52-29.96-7.63-9.24,3.92-17.73,1.33-26.45-.93-6.28-1.63-12.42-4.38-18.79-5.04-12.83-1.34-25.76-2.03-38.66-2.13-7.33-.06-13.2-2.2-18.25-7.25-5.47-5.47-12.22-6.39-19.16-4.27-9.97,3.04-19.52,7.73-29.64,9.96-16.3,3.58-32.17,8.42-47.99,13.53-10.53,3.4-20.48,7.54-27.42,17.15-7.69,10.65-7.68,17.48-1.39,28.72,3.93,7.03,10.01,12.4,14.75,18.83,9.33,12.63,9.13,28.02-.72,39.3-1.13,1.3-2.46,2.68-.97,4.3,1.28,1.39,3.1,1,4.64.18,10.08-5.41,16.01-14.6,19.49-24.75,3.87-11.28,5.76-23.24,8.51-34.9,2.77,1.83,6.19,2.51,8.64,4.9Z"/>
      <path class="cls-1" d="m107.68,143.51c-2.75,11.66-4.64,23.62-8.51,34.9-3.48,10.15-9.41,19.34-19.49,24.75-1.54.83-3.36,1.22-4.64-.18-1.49-1.62-.16-3.01.97-4.3,9.85-11.29,10.05-26.68.72-39.3-4.74-6.42-10.82-11.8-14.75-18.83-6.29-11.24-6.3-18.06,1.39-28.72,6.94-9.61,16.89-13.74,27.42-17.15,15.82-5.12,31.69-9.95,47.99-13.53,10.12-2.22,19.67-6.92,29.64-9.96,6.94-2.11,13.69-1.2,19.16,4.27,5.05,5.05,10.91,7.19,18.25,7.25,12.9.1,25.83.79,38.66,2.13,6.37.66,12.5,3.41,18.79,5.04,8.72,2.27,17.21,4.85,26.45.93,11.54-4.89,21.04-.27,29.96,7.63,6.93,6.14,15.22,10.65,23.42,15.04,12.36,6.62,25.63,11.43,37.1,19.87,8.89,6.54,16.05,14.38,18.67,25,2.03,8.24-.73,16.37-5.38,23.56-4.45,6.86-10.66,11.7-17.72,15.75-7.17,4.11-14.28,8.43-19.31,15.3-7.12,9.71-7.41,15.62-1.03,25.83,1.08,1.73,1.81,3.5.54,5-1.55,1.83-3.56.52-4.89-.59-6.09-5.09-10.49-11.36-12.65-19.08-2.91-10.38-5.63-20.8-5.02-31.74.09-1.68-.21-3.93-1.64-4.33-2.07-.58-2.47,1.92-2.92,3.32-4.06,12.7-3.98,24.93,1.65,37.57,5.85,13.12,9.63,26.89,9.02,41.79-.52,12.88-1.23,25.54-5.39,37.83-3.31,9.78-8.33,18.59-14.44,26.88-10.82,14.68-26.02,23.97-40.78,33.91-12.12,8.17-20.51,19.18-22.67,34.04-.51,3.5.22,7.16.24,10.75,0,1.03.53,2.63-1.01,2.95-1.24.26-2.09-.94-2.66-1.93-1.56-2.69-2.58-5.8-4.55-8.11-7.15-8.37-13.87-17.08-21.49-25.1-8.81-9.29-17.84-18.49-25.39-28.93-2.59-3.58-6.36-5.98-9.95-8.27-1.95-1.25-2.1-3.17-3.54-4.5-8.07-7.41-14.17-16.84-24.04-22.45-3.97-2.25-8.28-2.85-12.42-3.95-14.16-3.75-22.72-13.28-26.56-26.57-1.87-6.47-.92-13.75,2.4-20.4,4.92-9.84,5.41-19.77.38-30.12-4.54-9.35-8.13-19.22-10.73-29.33-2.85-11.1-1.87-22.53-1.12-33.72.57-8.48.2-16.91.51-25.35.07-10.94,5.1-20.81,6.88-31.63-2.76.26-4.36,1.74-5.75,3.92-4.51,7.08-7.7,14.69-9.77,22.8Zm169.85,164.11c1.88-.19,2.8-1.61,3.77-2.96,4.66-6.54,9.52-12.95,13.9-19.67,3.5-5.38,7.26-10.71,9.19-17.21-7.27-1.09-11.9,3.6-17.27,6.57-4.43,2.46-6.03,5.8-5.74,10.85.43,7.61.08,15.23-4.49,21.89-.06.38-.13.76-.19,1.14.28-.2.56-.41.84-.61Zm61.78-113.04c-.69,2.8,1.2,6.57,1.24,10.53.02,1.38.23,2.71,1.76,3.23,1.53.52,2.54-.5,3.46-1.45.92-.95,1.83-1.96,2.5-3.08,4.63-7.75,11.06-13.52,19.4-16.86,6.29-2.52,12.32-5.44,17.46-9.85,6.87-5.89,9.99-14.9,5.18-23.77-4.47-8.24-11.38-14.23-19.44-18.45-14.07-7.37-28.51-14.01-42.82-20.91-1.55-.75-3.37-2.34-4.96-.87-1.61,1.49-.19,3.42.52,5.02,4.64,10.44,9.13,20.97,11.79,32.1,3.39,14.16,4.73,28.57,3.89,44.38ZM64.46,122.6c-.23,3.17,1.23,5.23,3.21,7.49,5.45,6.24,13.31,10.28,16.57,18.55,2.23,5.64,2.92,11.69,5.05,17.32.52,1.38.57,3.55,2.77,3.5,1.87-.04,2.84-1.53,3.46-3.13.71-1.83,1.48-3.66,1.95-5.56,1.35-5.52,2.41-11.12,3.87-16.61,4.11-15.51,9.16-30.57,19.88-43.09,2.35-2.75.39-6.13-3.34-6.39-1.49-.1-3.07-.26-4.47.13-7.2,1.97-14.4,3.94-21.5,6.22-7.15,2.29-13.36,6.48-19.85,10.14-4.82,2.72-6.69,6.61-7.6,11.45Zm183.17,139.88c-1.94.67-2.63,1.61-3.37,2.37-4.44,4.56-5.39,12.13-11.61,14.84-8.33,3.63-15.84,9.12-24.92,11-2.2.45-2.79,2.43-3.06,4.06-.81,4.92.34,9.02,4.56,12.51,3.26,2.7,6.97,4.68,10.11,7.55,5.75,5.25,11.28,10.41,20.1,10.94,10.12.62,18.08-2.6,24.82-9.64,2.51-2.62,2.31-5.14-1.03-7.26-10.61-6.76-15.04-16.94-15.55-29.08-.24-5.75-.04-11.52-.04-17.28Zm-78.56-13.67c-7.14,6.86-9.39,15.59-12.7,23.81-3.49,8.66-8.66,16.36-17.96,19.24-5.77,1.78-3.71,3.85-1.53,6.52,5.93,7.27,14,10.23,23.03,11.09,9.03.86,17.47-2.04,26.05-4.15,3.4-.84,6.43-2.27,9.25-4.19,4.96-3.39,5.95-12.22,1.45-14.71-5.62-3.12-9.7-7.98-14.59-11.9-4.94-3.97-8.55-9.16-10.26-15.35-.93-3.37-.99-6.97-2.74-10.36Zm6.44,2.14c1.06,5.57,2.6,11.58,5.06,17.34.39.91.66,1.35,1.73.88,4.61-1.99,9.42-3.61,13.84-5.96,4.36-2.32,4.37-7.59.38-10.55-1.32-.98-2.65-2.09-4.15-2.68-3.67-1.44-3.27-3.16-.55-5.11,1.2-.86,2.5-1.71,3.89-2.13,9.29-2.74,18.13-.03,26.7,3.02,2.96,1.05,6.09,3.57,6.11,7.7.02,4.01-3.77,3.74-5.99,4.9-3.89,2.02-4.65,4.15-2.77,8.23,1.54,3.35,3.72,6.14,5.84,9,2.2,2.96,5.38,2.42,7.33-.91,2.31-3.95,4.63-7.89,6.97-11.83,3.42-5.77,4.46-12.14,1.12-17.86-3.76-6.45-9.83-10.84-17.14-13.13-9.47-2.96-19.27-3.56-28.91-2.08-13.73,2.11-18.48,9.17-19.46,21.17Zm153.89-83.02c0-3.24.13-5.25-.04-7.24-.18-2.12-.65-4.22-.96-6.33-2.79-19.1-9.51-36.29-23.01-50.67-3.19-3.4-6.09-4.13-10.15-4.16-3.28-.03-6.21,1.42-6.43,4.03-.22,2.64,3.13,4.11,5.8,3.98,2.49-.12,3.08,1.22,3.77,2.93,2.51,6.2,4.39,12.65,8.12,18.34,3.33,5.08,6.73,10.19,9.35,15.64,5.81,12.11,5.34,25.27,5.41,38.26,0,1.15-.89,2.38-.75,3.76.11,1.02.09,2.25,1.14,2.52,1.08.28,1.5-.81,1.96-1.73,3.26-6.49,7.69-12.63,5.79-19.33Zm-203.65-32.68c1.7.59,2.33-.64,2.97-1.49,6.52-8.75,14.16-16.4,21.92-24.06,7.21-7.12,16.21-11.95,23.03-19.47,1.32-1.46,3.54-2.16,5.73-2.58,3.52-.68,4.29-2.92,1.92-5.58-3.01-3.38-6.8-4.22-11.13-2.74-11.98,4.07-21,12.68-30.75,20.13-1.62,1.24-2.98,2.88-4.2,4.75-6.21,9.5-7.47,20.37-9.48,31.05Zm155.5,26.26c-5.03-.08-10.3.4-13.57,4.18-4.23,4.88-7.31,10.75-10.94,16.16-.62.92-1.97,1.64-.59,2.84.99.87,1.49,2.23,3.66,1.38,2.7-1.06,5.73-.68,8.67.41,8.02,2.97,16.29,4.74,23.62-1.34,3.43-2.85,6.31-5.52,11.1-3.57,1.12.45,2.35-.17,3.01-1.25.89-1.45-.56-2.07-1.29-2.81-1.99-1.99-3.67-4.27-5.58-6.29-4.91-5.17-10.28-9.83-18.09-9.71Zm-146.82,107.46c3.66-4.7,5.13-9.42,6.56-14.32,1.26-4.32-.8-8.13-.62-12.24.39-8.8.4-17.62.5-26.43.05-4.73-1.16-8.91-4.04-12.95-8.5-11.92-13.35-25.12-12.42-40.05.12-1.99.02-4,.02-6.01-.45.01-.9.02-1.35.04-.85,9.55-1.99,19.08-2.46,28.65-.67,13.49,2.85,26.11,8.58,38.29,4.74,10.06,8.26,20.46,7.53,31.97-.27,4.31-2.7,8.06-2.29,13.07Zm188.97-3.3c-4.69-1.03-7.73,1.19-9.41,5.22-1.87,4.49-3.01,9.3-5.02,13.72-7.88,17.28-19.97,31.45-33.64,44.36-1.15,1.08-3.05,2-2.14,3.53,1.08,1.81,2.99,1.03,4.79.21,7.05-3.19,12.86-8.16,18.18-13.49,13.9-13.93,23.41-30.75,30.89-48.83,1.68-4.07.97-5.82-3.64-4.74Zm-163.16-121.12c-8.47-.35-15.02,3.43-21.44,7.44-1.12.7-2.79,1.75-2.19,3.54.66,1.98,2.56.76,3.88,1.06.63.15,1.43.26,1.98,0,3.57-1.7,4.59.33,5.84,3.26,4.14,9.71,8.24,11.8,18.52,10.1.63-.1,1.3-.24,1.92-.16,9.23,1.23,9.28,1.23,6.96-7.74-1.09-4.2-2.07-8.29.2-12.46,3.18-5.85,1.48-11.9-4.08-15.4-1.27-.8-2.64-.95-3.72-.24-1.26.84-.29,2.05.16,3.09,1.26,2.86,2.48,5.74,3.73,8.6.41.94.85,2.06-.23,2.63-.46.24-1.64-.28-2.15-.8-2.79-2.79-6.18-3.3-9.39-2.93Zm67.23-43.16l-1.41-.03c-.96,5.34-1.08,11.03-3.06,15.96-4.67,11.64-5.76,24.01-8.61,36.01-2.48,10.47-6.48,20.57-16.05,26.79-5.58,3.63-11.91,6.09-17.7,9.43-6.68,3.85-13.73,7.34-18.18,14.12-1.14,1.73-1.5,3.27.3,4.81,1.6,1.37,3.23,1.56,4.95.36,2.15-1.51,4.36-2.93,6.13-4.96,6.27-7.15,13.74-12.58,22.15-17.2,14.52-7.97,22.65-20.94,25.5-37.15,1.22-6.92,1.83-13.95,3-20.87,1.53-9.05,3.02-18.08,2.98-27.27Zm43.13,54.65q4.12.81,6.46-.31c5.13-2.45,5.46-3.88,1.91-8.12-.85-1.01-2.05-2.15-1.13-3.47,1.55-2.23-.34-3.04-1.49-3.92-1.82-1.38-3.76-2.74-5.86-3.57-3.15-1.25-7.6-4.38-9.6-1-2.11,3.59,2.65,6.39,5.2,9.07.22.24.48.46.76.62,6.8,3.74,6.95,4.16,3.75,10.7Zm46.27,51.98c-5.77,18.97-17.35,34.55-28.8,50.22,17.12-12.37,25.51-29.83,28.8-50.22Zm-119.68-88.09c-5.05-1.13-9.61.18-14.25,2.24-7.09,3.14-7.26,3.13-3.5,9.41.63,1.06.67,2.6,2.55,3.16,1.16-4.92,5.55-6.08,9.41-7.32,3.93-1.27,5.53-3.62,5.79-7.49Zm127.11,111.1c-1.65,5.71-3.11,10.51-4.4,15.34-1.35,5.06,1.57,9.44,6.42,10.03,1.44.18,2.23-.13,2.23-1.68,0-7.84.02-15.68-4.25-23.7Zm-89.58-132.36c-.54,0-1.07,0-1.61,0-.1,12.84-6.21,25.66,1.61,38.52v-38.52Zm64.66,130.31c-8.34.87-15.45,4.6-23.54,8.41,6.91,2.77,12.47-.79,18.19-1.31,3.47-.32,3.39-4.66,5.36-7.1Zm-40.86-35.53c-.06,7.36-1.06,13.93,3.03,19.65.76,1.07,1.72,3.38,3.79,1.96,1.99-1.37,1.8-4.14.58-5.23-4.72-4.2-4.82-10.27-7.4-16.38Zm-56.77,128.57c4.51,3.74,9.62,2.2,14.63,1.67-4.5-3.82-9.73-1.26-14.63-1.67Zm1.86-7.83c-6.21-3.05-12.56-1.08-18.83-1.18,6.18,2.39,12.58,1.01,18.83,1.18Z"/>
      <path class="cls-2" d="m107.68,143.51c2.07-8.11,5.26-15.73,9.77-22.8,1.39-2.18,2.99-3.67,5.75-3.92-1.78,10.82-6.82,20.69-6.88,31.63-2.45-2.4-5.87-3.08-8.64-4.9Z"/>
      <path class="cls-2" d="m339.31,194.58c.84-15.81-.51-30.22-3.89-44.38-2.66-11.13-7.14-21.66-11.79-32.1-.71-1.59-2.13-3.53-.52-5.02,1.59-1.48,3.41.12,4.96.87,14.31,6.9,28.75,13.55,42.82,20.91,8.06,4.22,14.96,10.21,19.44,18.45,4.81,8.87,1.69,17.88-5.18,23.77-5.14,4.41-11.17,7.32-17.46,9.85-8.34,3.35-14.77,9.11-19.4,16.86-.67,1.13-1.58,2.13-2.5,3.08-.92.95-1.93,1.97-3.46,1.45-1.53-.52-1.75-1.85-1.76-3.23-.05-3.95-1.93-7.73-1.24-10.53Z"/>
      <path class="cls-2" d="m64.46,122.6c.92-4.84,2.79-8.73,7.6-11.45,6.49-3.66,12.71-7.85,19.85-10.14,7.1-2.28,14.3-4.26,21.5-6.22,1.4-.38,2.98-.23,4.47-.13,3.72.26,5.69,3.65,3.34,6.39-10.72,12.52-15.78,27.58-19.88,43.09-1.45,5.49-2.51,11.09-3.87,16.61-.47,1.9-1.24,3.73-1.95,5.56-.62,1.6-1.59,3.09-3.46,3.13-2.2.05-2.25-2.12-2.77-3.5-2.13-5.63-2.83-11.67-5.05-17.32-3.26-8.28-11.12-12.31-16.57-18.55-1.98-2.26-3.44-4.33-3.21-7.49Z"/>
      <path class="cls-2" d="m247.63,262.47c0,5.76-.2,11.53.04,17.28.51,12.14,4.94,22.32,15.55,29.08,3.34,2.13,3.54,4.64,1.03,7.26-6.74,7.04-14.7,10.26-24.82,9.64-8.82-.54-14.35-5.69-20.1-10.94-3.14-2.87-6.85-4.85-10.11-7.55-4.21-3.49-5.37-7.58-4.56-12.51.27-1.63.86-3.6,3.06-4.06,9.09-1.88,16.6-7.37,24.92-11,6.22-2.71,7.17-10.29,11.61-14.84.74-.76,1.43-1.7,3.37-2.37Z"/>
      <path class="cls-2" d="m169.07,248.81c1.74,3.39,1.81,6.99,2.74,10.36,1.71,6.19,5.32,11.38,10.26,15.35,4.89,3.92,8.97,8.78,14.59,11.9,4.49,2.49,3.51,11.33-1.45,14.71-2.81,1.92-5.84,3.35-9.25,4.19-8.58,2.11-17.02,5.01-26.05,4.15-9.02-.86-17.1-3.82-23.03-11.09-2.18-2.67-4.24-4.74,1.53-6.52,9.3-2.87,14.47-10.57,17.96-19.24,3.31-8.22,5.56-16.95,12.7-23.81Z"/>
      <path class="cls-2" d="m175.51,250.95c.98-11.99,5.73-19.06,19.46-21.17,9.65-1.48,19.44-.89,28.91,2.08,7.3,2.29,13.37,6.67,17.14,13.13,3.34,5.72,2.29,12.09-1.12,17.86-2.33,3.94-4.65,7.88-6.97,11.83-1.95,3.32-5.13,3.87-7.33.91-2.12-2.85-4.3-5.64-5.84-9-1.88-4.08-1.12-6.22,2.77-8.23,2.22-1.15,6.02-.89,5.99-4.9-.02-4.13-3.15-6.65-6.11-7.7-8.57-3.04-17.41-5.76-26.7-3.02-1.39.41-2.7,1.27-3.89,2.13-2.72,1.95-3.12,3.66.55,5.11,1.5.59,2.83,1.7,4.15,2.68,3.99,2.97,3.98,8.24-.38,10.55-4.42,2.35-9.22,3.97-13.84,5.96-1.07.46-1.34.03-1.73-.88-2.46-5.76-3.99-11.77-5.06-17.34Z"/>
      <path class="cls-2" d="m329.39,167.93c1.9,6.69-2.52,12.84-5.79,19.33-.46.92-.88,2.01-1.96,1.73-1.05-.27-1.03-1.5-1.14-2.52-.15-1.38.75-2.61.75-3.76-.07-12.99.4-26.15-5.41-38.26-2.62-5.46-6.02-10.56-9.35-15.64-3.73-5.69-5.61-12.14-8.12-18.34-.69-1.71-1.28-3.05-3.77-2.93-2.66.13-6.01-1.34-5.8-3.98.21-2.61,3.15-4.06,6.43-4.03,4.06.04,6.96.76,10.15,4.16,13.5,14.38,20.22,31.57,23.01,50.67.31,2.11.78,4.21.96,6.33.16,1.99.04,3.99.04,7.24Z"/>
      <path class="cls-2" d="m125.74,135.25c2.02-10.68,3.27-21.55,9.48-31.05,1.22-1.87,2.58-3.51,4.2-4.75,9.75-7.45,18.77-16.06,30.75-20.13,4.33-1.47,8.12-.64,11.13,2.74,2.37,2.66,1.6,4.91-1.92,5.58-2.19.42-4.41,1.12-5.73,2.58-6.81,7.51-15.81,12.35-23.03,19.47-7.76,7.66-15.4,15.32-21.92,24.06-.64.85-1.27,2.08-2.97,1.49Z"/>
      <path class="cls-2" d="m281.24,161.51c7.81-.12,13.18,4.54,18.09,9.71,1.91,2.02,3.59,4.29,5.58,6.29.73.74,2.18,1.36,1.29,2.81-.66,1.08-1.89,1.71-3.01,1.25-4.79-1.94-7.66.72-11.1,3.57-7.33,6.08-15.6,4.31-23.62,1.34-2.95-1.09-5.98-1.48-8.67-.41-2.17.86-2.66-.51-3.66-1.38-1.37-1.2-.03-1.92.59-2.84,3.63-5.41,6.71-11.27,10.94-16.16,3.27-3.78,8.54-4.26,13.57-4.18Zm7.1,18.95c-3.36.66-6.22,2.94-10.24,1.35-3.59-1.42-5.79-3.56-7.14-7.29-1.37,3.28,0,5.8,4.18,8.49,5.92,3.82,9.01,3.39,13.97-1.95.02-.4.03-.8.05-1.2-.27.2-.54.39-.8.59Z"/>
      <path class="cls-2" d="m134.42,268.97c-.41-5.01,2.02-8.76,2.29-13.07.73-11.51-2.79-21.91-7.53-31.97-5.73-12.18-9.25-24.8-8.58-38.29.47-9.57,1.62-19.1,2.46-28.65.45-.01.9-.02,1.35-.04,0,2,.11,4.01-.02,6.01-.94,14.93,3.92,28.14,12.42,40.05,2.88,4.04,4.1,8.22,4.04,12.95-.1,8.81-.11,17.63-.5,26.43-.18,4.11,1.88,7.92.62,12.24-1.43,4.89-2.9,9.61-6.56,14.32Z"/>
      <path class="cls-2" d="m323.4,265.68c4.61-1.08,5.33.67,3.64,4.74-7.47,18.08-16.99,34.9-30.89,48.83-5.32,5.33-11.13,10.29-18.18,13.49-1.81.82-3.71,1.6-4.79-.21-.91-1.54.99-2.45,2.14-3.53,13.67-12.91,25.76-27.08,33.64-44.36,2.02-4.42,3.15-9.23,5.02-13.72,1.68-4.02,4.73-6.25,9.41-5.22Z"/>
      <path class="cls-2" d="m160.23,144.56c3.21-.37,6.61.13,9.39,2.93.51.51,1.69,1.04,2.15.8,1.08-.57.64-1.68.23-2.63-1.25-2.86-2.48-5.74-3.73-8.6-.46-1.04-1.42-2.25-.16-3.09,1.07-.72,2.45-.56,3.72.24,5.56,3.5,7.26,9.55,4.08,15.4-2.26,4.17-1.28,8.26-.2,12.46,2.32,8.97,2.27,8.97-6.96,7.74-.62-.08-1.29.06-1.92.16-10.28,1.7-14.38-.39-18.52-10.1-1.25-2.93-2.27-4.96-5.84-3.26-.54.26-1.34.14-1.98,0-1.32-.31-3.21.92-3.88-1.06-.6-1.8,1.07-2.84,2.19-3.54,6.42-4.01,12.97-7.79,21.44-7.44Zm-6.35,10.21c-2.23,4.72-.7,8.71,3.99,10.96,3.38,1.62,11.3-.27,12.45-3.06.2-.48.02-1.52-.33-1.75-.85-.54-1.44.35-2.05.84-3.24,2.6-6.7,2.59-10.08.53-2.58-1.58-2.09-5.01-3.98-7.52Z"/>
      <path class="cls-2" d="m227.47,101.4c.05,9.19-1.45,18.22-2.98,27.27-1.17,6.93-1.78,13.96-3,20.87-2.86,16.21-10.99,29.18-25.5,37.15-8.41,4.62-15.88,10.05-22.15,17.2-1.78,2.02-3.98,3.45-6.13,4.96-1.72,1.2-3.35,1.01-4.95-.36-1.8-1.54-1.44-3.08-.3-4.81,4.45-6.78,11.5-10.27,18.18-14.12,5.79-3.34,12.12-5.8,17.7-9.43,9.57-6.22,13.57-16.32,16.05-26.79,2.84-12,3.93-24.36,8.61-36.01,1.98-4.93,2.1-10.62,3.06-15.96l1.41.03Z"/>
      <path class="cls-2" d="m276.88,307.1c4.58-6.66,4.93-14.28,4.5-21.89-.29-5.05,1.31-8.39,5.74-10.85,5.37-2.98,10-7.66,17.27-6.57-1.93,6.5-5.68,11.83-9.19,17.21-4.38,6.72-9.24,13.13-13.9,19.67-.97,1.36-1.89,2.77-3.77,2.96-.19-.21-.41-.38-.65-.53Z"/>
      <path class="cls-2" d="m270.59,156.05c3.2-6.54,3.05-6.96-3.75-10.7-.28-.16-.54-.38-.76-.62-2.55-2.67-7.31-5.48-5.2-9.07,1.99-3.39,6.45-.25,9.6,1,2.1.83,4.04,2.19,5.86,3.57,1.15.87,3.04,1.69,1.49,3.92-.92,1.32.28,2.46,1.13,3.47,3.56,4.24,3.22,5.67-1.91,8.12q-2.34,1.12-6.46.31Z"/>
      <path class="cls-2" d="m316.86,208.04c-3.29,20.39-11.68,37.85-28.8,50.22,11.45-15.67,23.03-31.25,28.8-50.22Z"/>
      <path class="cls-2" d="m197.18,119.95c-.26,3.87-1.85,6.21-5.79,7.49-3.85,1.25-8.25,2.41-9.41,7.32-1.88-.56-1.92-2.11-2.55-3.16-3.76-6.28-3.59-6.27,3.5-9.41,4.63-2.05,9.2-3.36,14.25-2.24Z"/>
      <path class="cls-2" d="m324.29,231.04c4.28,8.02,4.25,15.86,4.25,23.7,0,1.56-.79,1.86-2.23,1.68-4.85-.59-7.77-4.98-6.42-10.03,1.29-4.84,2.75-9.63,4.4-15.34Z"/>
      <path class="cls-2" d="m234.71,98.68v38.52c-7.82-12.86-1.72-25.68-1.61-38.52.54,0,1.07,0,1.61,0Z"/>
      <path class="cls-2" d="m299.37,228.99c-1.97,2.44-1.89,6.78-5.36,7.1-5.72.53-11.27,4.09-18.19,1.31,8.1-3.81,15.21-7.54,23.54-8.41Z"/>
      <path class="cls-2" d="m258.51,193.46c2.58,6.11,2.68,12.18,7.4,16.38,1.23,1.09,1.42,3.86-.58,5.23-2.07,1.42-3.03-.89-3.79-1.96-4.09-5.72-3.1-12.29-3.03-19.65Z"/>
      <path class="cls-2" d="m201.73,322.03c4.89.41,10.13-2.15,14.63,1.67-5,.53-10.12,2.07-14.63-1.67Z"/>
      <path class="cls-2" d="m203.59,314.2c-6.25-.16-12.65,1.21-18.83-1.18,6.27.1,12.62-1.87,18.83,1.18Z"/>
      <path class="cls-2" d="m277.53,307.62c-.28.2-.56.41-.84.61.06-.38.13-.76.19-1.14.24.14.46.32.65.53Z"/>
      <path class="cls-1" d="m289.1,181.07c-4.96,5.34-8.05,5.77-13.97,1.95-4.17-2.69-5.55-5.21-4.18-8.49,1.35,3.72,3.55,5.86,7.14,7.29,4.02,1.59,6.88-.69,10.24-1.35.23.23.48.43.76.61Z"/>
      <path class="cls-1" d="m288.34,180.46c.27-.2.54-.39.8-.59-.02.4-.03.8-.05,1.2-.27-.17-.53-.38-.76-.61Z"/>
      <path class="cls-1" d="m153.88,154.77c1.89,2.51,1.39,5.94,3.98,7.52,3.37,2.06,6.84,2.07,10.08-.53.61-.49,1.2-1.38,2.05-.84.36.23.53,1.27.33,1.75-1.15,2.78-9.07,4.68-12.45,3.06-4.69-2.25-6.22-6.24-3.99-10.96Z"/>
    </g>
  </g>
</svg>