<svg width="46" height="44" viewBox="0 0 46 44" fill="none" xmlns="http://www.w3.org/2000/svg">
<path d="M44.0822 34.0514C45.2282 31.7219 45.7995 29.1518 45.748 26.5562C45.6966 23.9605 45.024 21.415 43.7866 19.1328C42.5492 16.8505 40.783 14.898 38.6359 13.4386C36.4888 11.9792 34.0233 11.0555 31.4458 10.7448C30.5876 8.75701 29.3407 6.96074 27.7785 5.46155C26.2163 3.96235 24.3702 2.79048 22.3488 2.01476C20.3273 1.23904 18.1712 0.875121 16.0071 0.944382C13.843 1.01364 11.7146 1.51469 9.74688 2.41808C7.77916 3.32147 6.01181 4.60899 4.54866 6.20501C3.08552 7.80103 1.95608 9.67335 1.2267 11.712C0.497318 13.7506 0.182705 15.9145 0.30134 18.0764C0.419975 20.2384 0.969466 22.3548 1.91753 24.3014L0.361596 29.7492C0.240582 30.1723 0.219406 30.6177 0.299735 31.0504C0.380065 31.483 0.559707 31.8911 0.824526 32.2426C1.08934 32.594 1.43211 32.8792 1.82586 33.0757C2.2196 33.2722 2.65357 33.3747 3.09363 33.375C3.35752 33.3757 3.62017 33.3388 3.87363 33.2653L9.32144 31.7094C10.9648 32.5217 12.7353 33.0459 14.556 33.2592C15.4227 35.2893 16.694 37.1216 18.2923 38.6441C19.8905 40.1667 21.7822 41.3477 23.852 42.115C25.9217 42.8823 28.1261 43.2199 30.3306 43.1072C32.5351 42.9945 34.6936 42.4338 36.6743 41.4594L42.1221 43.0153C42.6094 43.1542 43.1251 43.1602 43.6156 43.0329C44.1061 42.9056 44.5537 42.6496 44.912 42.2912C45.2704 41.9329 45.5264 41.4853 45.6537 40.9948C45.7811 40.5043 45.775 39.9886 45.6361 39.5013L44.0822 34.0514ZM10.2761 28.5427C9.90352 28.3392 9.46607 28.2896 9.05738 28.4045L3.69285 29.9381L5.22644 24.5736C5.34137 24.1649 5.29179 23.7275 5.08832 23.3548C3.41182 20.3418 3.00092 16.7861 3.94601 13.4701C4.89111 10.1541 7.11478 7.34931 10.1278 5.67281C13.1409 3.99631 16.6966 3.58541 20.0126 4.53051C23.3286 5.47561 26.1334 7.69928 27.8099 10.7123C23.8165 11.1354 20.1204 13.0199 17.4327 16.0036C14.7449 18.9872 13.2551 22.8592 13.2499 26.875C13.2506 27.8493 13.3396 28.8215 13.516 29.7797C12.3851 29.5154 11.2953 29.0993 10.2761 28.5427ZM40.7794 34.3236L42.313 39.6881L36.9485 38.1545C36.5398 38.0396 36.1023 38.0892 35.7297 38.2927C32.9866 39.7868 29.7969 40.2425 26.7451 39.5761C23.6934 38.9097 20.9839 37.166 19.1133 34.6644C17.2426 32.1628 16.3361 29.0709 16.5597 25.9552C16.7834 22.8396 18.1223 19.9088 20.331 17.7001C22.5398 15.4913 25.4705 14.1524 28.5862 13.9288C31.7018 13.7051 34.7937 14.6117 37.2953 16.4823C39.7969 18.3529 41.5407 21.0624 42.2071 24.1142C42.8734 27.1659 42.4178 30.3556 40.9236 33.0988C40.7165 33.4722 40.6647 33.9122 40.7794 34.3236ZM26.2499 24.4375C26.2499 24.9196 26.1069 25.3909 25.8391 25.7917C25.5712 26.1925 25.1906 26.505 24.7452 26.6895C24.2998 26.8739 23.8097 26.9222 23.3368 26.8282C22.864 26.7341 22.4297 26.502 22.0888 26.1611C21.7479 25.8202 21.5158 25.3859 21.4217 24.913C21.3277 24.4402 21.3759 23.9501 21.5604 23.5047C21.7449 23.0593 22.0573 22.6786 22.4582 22.4108C22.859 22.143 23.3303 22 23.8124 22C24.4588 22 25.0788 22.2568 25.5359 22.7139C25.9931 23.171 26.2499 23.791 26.2499 24.4375ZM37.6249 24.4375C37.6249 24.9196 37.4819 25.3909 37.2141 25.7917C36.9462 26.1925 36.5656 26.505 36.1202 26.6895C35.6748 26.8739 35.1847 26.9222 34.7118 26.8282C34.239 26.7341 33.8047 26.502 33.4638 26.1611C33.1229 25.8202 32.8908 25.3859 32.7967 24.913C32.7027 24.4402 32.7509 23.9501 32.9354 23.5047C33.1199 23.0593 33.4323 22.6786 33.8332 22.4108C34.234 22.143 34.7053 22 35.1874 22C35.8338 22 36.4538 22.2568 36.9109 22.7139C37.3681 23.171 37.6249 23.791 37.6249 24.4375Z" fill="#02B3DB"/>
</svg>
