<?xml version="1.0" encoding="UTF-8"?><svg id="Layer_2" xmlns="http://www.w3.org/2000/svg" viewBox="0 0 128.12 128.01"><defs><style>.cls-1{fill:#145870;}.cls-2{fill:#3da5c3;}</style></defs><g id="Layer_1-2"><path class="cls-1" d="m128.12,56.82v14.99c-.11.09-.09.22-.11.34-.26,1.69-.43,3.39-.79,5.05-.57,2.72-1.29,5.41-2.21,8.04-.61,1.74-1.32,3.45-1.98,5.17-.83,2.14-1.91,4.14-3.06,6.12-.93,1.61-1.95,3.17-3.02,4.69-.9,1.27-1.81,2.54-2.81,3.74-1.66,2-3.37,3.94-5.29,5.7-.86.79-1.64,1.67-2.55,2.42-.9.74-1.75,1.55-2.71,2.2-1.3.89-2.54,1.88-3.84,2.77-1.34.92-2.76,1.71-4.08,2.64-.58.41-1.25.65-1.9.94-.93.43-1.84.92-2.77,1.37-1.49.73-3.02,1.37-4.59,1.9-1.22.42-2.43.87-3.68,1.22-1.77.5-3.55.95-5.37,1.23-1.7.26-3.38.66-5.12.66-4.85,0-9.7,0-14.55,0-2.06,0-4.11-.04-6.15-.47-2.77-.58-5.52-1.2-8.2-2.13-4.86-1.69-9.47-3.89-13.82-6.63-1.89-1.19-3.64-2.57-5.42-3.9-1.31-.98-2.41-2.19-3.58-3.31-.52-.5-1.09-.98-1.61-1.46-1.78-1.62-3.34-3.43-4.84-5.29-1.06-1.32-2.06-2.71-3.06-4.08-.46-.63-.91-1.29-1.25-1.99-.21-.43-.33-.88-.67-1.26-.94-1.05-1.48-2.36-2.11-3.59-1.86-3.6-3.3-7.39-4.49-11.25-.66-2.14-1.11-4.34-1.46-6.56-.43-2.73-.87-5.45-.81-8.23.06-3.04.02-6.08.02-9.12,0-1.36,0-2.71.23-4.07.39-2.38.84-4.75,1.44-7.08.7-2.69,1.62-5.31,2.68-7.88,1.88-4.56,4.21-8.88,6.98-12.97,1.83-2.71,3.91-5.21,6.15-7.58,2.55-2.7,5.34-5.12,8.33-7.29,4.68-3.39,9.76-6.05,15.16-8.09,2.56-.97,5.18-1.73,7.85-2.32,2.56-.56,5.13-.98,7.75-1.12.44-.02.96.19,1.35-.23h14.11c.15.19.35.24.58.27.99.13,1.98.26,2.96.43,2.96.51,5.86,1.24,8.73,2.15,2.47.78,4.87,1.7,7.2,2.83,2.29,1.11,4.54,2.31,6.7,3.67,2.65,1.66,5.15,3.52,7.5,5.56,2.59,2.25,4.92,4.78,7.19,7.36,1.55,1.76,2.85,3.68,4.22,5.57,1.69,2.33,2.85,4.97,4.23,7.49.82,1.5,1.49,3.09,2.1,4.68.83,2.15,1.56,4.34,2.23,6.55.71,2.36,1.22,4.75,1.68,7.16.19,1,.22,2.02.49,3.01Zm-62.92-22.64c-.77.81-.75.79-1.44.19-.19-.16-.12-.29-.05-.31.64-.18.63-.81.87-1.25.27-.5.57-.94,1.14-1.15.62-.23,2.02-.03,2.29.45.43.77.92,1.55,1.12,2.39.35,1.49.84,2.95,1.16,4.45.19.88.45,1.77.76,2.58.36.94.27,1.84.37,2.75.08.77.24,1.51.66,2.18.75,1.19,1.51,1.42,2.73.72.88-.51,1.73-1.07,2.55-1.67,1.07-.79,1.13-1.47.76-2.46-.96-2.58-2.03-5.13-2.71-7.81-.18-.71.13-1.22.84-1.38.3-.07.46.03.39.35-.08.41-.2.8-.28,1.21-.13.67-.11,1.33.36,1.89.52.63,1.38.48,1.68-.29.06-.16.09-.28-.06-.44-.69-.72-1.03-1.64-1.32-2.57-.36-1.15-.72-2.3-1.09-3.44-.16-.49-.46-.76-1.01-.74-.69.02-1.38.05-2.06-.02-.91-.09-1.94.05-2.46-1.03-.08-.17-.25-.11-.3.07-.04.14.26.4-.1.41-.23,0-.47-.04-.61-.37-.12-.28-.51-.6-.74.02-.05.14-.16.25-.32.27-1.16.21-2.04,1.02-3.09,1.47-.18.08-.54.16-.57.42-.06.57-.54.83-.83,1.23-.43.6-1.07,1.03-1.46,1.69-.19.31-.52.56-.95.59-1.18.07-2.36.17-3.54.25-.55.04-1.1.07-1.64.09-1.28.04-2.6.48-3.82-.28-.13-.08-.28-.1-.42-.03-.75.39-1.55.17-2.33.19-.19,0-.38-.04-.45-.26-.37-1.07-1.19-1.83-1.86-2.7-.66-.86-2.56-1.45-3.53-.99-1.83.86-3.79,1.31-5.68,1.98-.63.22-1.29.49-1.7,1.08-.66.93-1.14,1.96-1.52,3.02-.25.71.13,1.13.86,1.03.47-.06.66-.4.77-.8.11-.44.2-.89.27-1.34.22-1.39.95-2.28,2.36-2.65,1.6-.42,3.24-.73,4.8-1.31.36-.13.82-.16,1.16,0,1.12.55,1.69,1.51,1.85,2.73.03.22,0,.4-.16.57-1.18,1.35-2.53,2.53-3.91,3.66-.09.08-.22.19-.31.17-.16-.04-.16-.23-.16-.37,0-.21.02-.42.07-.62.16-.74-.1-1.43-.14-2.25-.15.14-.25.19-.25.24-.05.89-.24,1.82.05,2.66.2.6.11.92-.3,1.27-.17.15-.32.33-.5.47-1.55,1.19-2.08,2.98-2.8,4.67-.15.36-.16.81-.52,1.04-1.29.82-1.54,2.16-1.42,3.46.08.92,0,1.89.23,2.76.29,1.14-.3,1.59-1.09,2.04-.09.05-.18.11-.27.16-1.53.79-2.79,1.93-3.98,3.15-.33.33-.69.62-1.15.72-.36.08-.56.31-.78.56-.57.65-.56,1.48-.78,2.24-.32,1.11-.51,2.25-.59,3.4-.16,2.34.24,4.64.63,6.94.13.76.23,1.52.83,2.1.14.13.4.19.38.45-.03.56.35.47.67.41.41-.08.8-.23,1.12-.52.21-.19.3-.13.48.06.3.31.36.75.78,1.01.93.57,1.88.53,2.88.34,1.11-.21,2.22-.24,3.24.39.13.08.28.2.44.03,0-.04,0-.09-.03-.12-.07-.08-.14-.15-.22-.22-1.16-1.04-2.54-.77-3.85-.52-.95.18-1.72.12-2.38-.6-.29-.32-.56-.67-.84-1-.23-.26-.43-.43-.68.03-.17.33-.48.58-.91.53-.15-.02-.29,0-.27-.23.11-1.13.08-2.29.6-3.35.69-1.39.71-2.83.39-4.32-.08-.35-.18-.57-.54-.73-1.18-.55-1.55-1.75-.9-2.9.16-.28.02-.42-.11-.59-.26-.35-.55-.72-.56-1.16-.02-.72,1.28-2.08,2.03-2.22,1.38-.26,2.78-.07,4.17-.13,1.32-.05,2.42.5,3.45,1.24.32.23.57.58.42.97-.33.84-.42,1.88-1.6,2.07-.19.03-.22.22-.3.36-.33.54-.52,1.19-1,1.59-.77.65-1.61,1.24-2.6,1.52-.25.07-.35.21-.34.44.01.46-.02.91.06,1.37.28,1.67,1.43,2.82,2.41,4.06.55.69,1.28,1.2,1.99,1.74,1.36,1.02,2.75,1.93,4.42,2.34.53.13,1.14.13,1.34.81.02.06.17.09.26.12,1.27.51,2.61.54,3.8-.05,1.13-.57,2.22-.47,3.36-.36,1.27.12,2.5-.11,3.45-.91.63-.53.95-.36,1.4.07.08.07.16.14.24.2,1.16.87,2.18,1.94,3.43,2.7.19.12.44.43.67.02.21-.36-.11-.51-.32-.62-1.23-.66-1.85-1.92-2.82-2.84-.26-.25-.8-.49-.63-.96.14-.4.66-.46,1.01-.69.45-.3,1.04-.54,1.1-1.12.09-.81.38-1.43,1.08-1.85.14-.08.28-.23.12-.41-.13-.15-.27-.32-.52-.25-.32.09-1.24,1.14-1.26,1.48-.04,1.02-.67,1.64-1.47,2.07-.57.31-1.11.65-1.61,1.06-.55.45-1.14.84-1.75,1.2-.98.59-1.95.45-3.01-.07.48-.16.88-.18,1.27-.16,1,.05,1.6-.45,1.94-1.34.28-.72.55-1.43.86-2.14.73-1.66,1.4-2.03,3.21-1.81.28.03.42,0,.44-.33.07-.94.64-1.56,1.41-1.99,1.1-.62,2.29-.83,3.54-.78.59.02.94.28,1.29.77.48.66.44,1.17-.07,1.73-.05.06-.11.13-.14.21-.16.41-.02.61.42.54.48-.08.9-.32,1.29-.6,2.85-2.12,4.11-5.08,4.42-8.5.08-.86.11-1.76.03-2.64-.12-1.37.39-2.6.89-3.83.19-.46.48-.74,1.01-.78.58-.04.91-.37,1.02-.98.14-.8.07-1.59.07-2.42-1.12.52-1.43.38-1.82-.74-.07-.21-.17-.42-.25-.63-.56-1.34-.89-2.77-.6-4.19.18-.87-.03-1.47-.49-2.1-.28-.38-.58-.69-1.14-.45-.37.17-.72-.02-.75-.4-.12-1.28-.94-2.12-1.74-2.99-.4-.43-.68-.89-.57-1.51.05-.26-.04-.49-.15-.72-.4-.79-.67-1.61-.56-2.63Zm-11.7,43.97c-.06.11-.14.19-.14.33.06,2.06.49,4.05.93,6.05.36,1.63.56,3.28-.28,4.88-.78,1.49-1.48,3.01-2,4.62-.18.56-.36,1.12-.64,1.63-.45.84-.38,1.46.35,2.1.65.57,1.44.83,2.25,1.01,1.27.28,2.24.94,2.92,2.05.25.41.59.75,1.04.97.19.09.35.11.51-.05.17-.16.24-.36.14-.56-.08-.16-.19-.33-.33-.44-.66-.51-.88-1.17-.81-1.98.03-.37,0-.75,0-1.12-.04-1.17-.22-2.3-.87-3.31-.1-.15-.3-.27-.16-.48.11-.17.31-.2.5-.22.28-.02.53.07.78.18.49.22.84.6,1.21.97.74.73,1.28.81,2.18.31.4-.22.79-.46,1.19-.69.18-.1.36-.15.51.03.12.15.08.32-.01.47-.26.42-.55.83-.97,1.12-.32.22-.5.56-.63.9-.16.41.05.71.45.67.93-.09,1.89-.22,2.69-.65,1.17-.63,1.96-1.63,2.22-3.01.09-.47.11-.95.27-1.41.59-1.74,1.92-2.52,3.62-2.86,1.21-.24,2.43-.38,3.6-.83.77-.29,1.17-.86,1.59-1.44.38-.53.39-1.2.56-1.81.3-1.12,1.09-1.94,1.95-2.68,1.25-1.08,2.58-2.02,4.28-2.2,1.51-.16,3.02-.23,4.54-.28,1.19-.04,2.35-.27,3.38-.92,1.69-1.06,2.69-2.58,3.01-4.56.03-.18,0-.43.23-.46.27-.04.41.18.48.41.54,1.74,1.27,3.43,1.64,5.22.29,1.37.63,2.71,1.47,3.87.84,1.17,1.77,2.26,2.83,3.24.68.63,1.4,1.16,2.34,1.36.38.08.41-.07.34-.33-.13-.52-.3-1.04-.43-1.56-1.45-5.81-5.16-10.29-8.73-14.86-.79-1.01-1.58-2.03-2.3-3.09-.97-1.46-1.74-3.04-2.57-4.58-1.4-2.59-3.23-4.88-4.98-7.22-.79-1.05-1.49-2.15-2.2-3.26-.22-.34-.43-.77-.92-.74-.41.03-.54-.2-.68-.49-.94-1.88-1.97-3.71-3.08-5.49-.12-.2-.22-.55-.51-.44-.23.08-.12.4-.1.63.11,1.24.29,2.48.31,3.73.05,2.64.07,5.29-.02,7.93-.02.78.1,1.57-.15,2.36-.11.35-.4.85-.31,1.04.38.9-.1,1.74-.02,2.61.04.44-.07.91-.16,1.36-.07.36-.3.7-.71.46-.69-.4-.95-.34-1.13.45-.14.63-.16,1.28-.3,1.9-.87,3.71-3.33,5.99-6.8,7.22-1.12.4-2.32.64-3.48.96-.98.26-1.76,1.16-1.89,2.17-.06.5-.37.72-.84.56-.6-.21-1.17-.4-1.85-.27-.88.17-1.71-.2-2.49-.61-.14-.08-.35-.31-.44.11-.12.6-.45.72-.95.36-.52-.38-.93-.89-1.37-1.36Z"/><path class="cls-2" d="m65.21,34.18c-.11,1.02.17,1.84.56,2.63.11.23.2.46.15.72-.11.62.17,1.08.57,1.51.8.86,1.62,1.71,1.74,2.99.04.38.38.57.75.4.56-.25.86.06,1.14.45.46.63.66,1.23.49,2.1-.28,1.41.04,2.84.6,4.19.09.21.18.42.25.63.39,1.12.7,1.26,1.82.74,0,.83.06,1.62-.07,2.42-.11.61-.43.93-1.02.98-.53.04-.82.31-1.01.78-.49,1.23-1.01,2.46-.89,3.83.08.88.05,1.78-.03,2.64-.32,3.41-1.58,6.38-4.42,8.5-.38.29-.81.52-1.29.6-.44.07-.59-.13-.42-.54.03-.08.08-.15.14-.21.5-.56.54-1.07.07-1.73-.35-.49-.7-.75-1.29-.77-1.25-.05-2.45.17-3.54.78-.78.44-1.35,1.05-1.41,1.99-.02.33-.16.37-.44.33-1.81-.22-2.48.15-3.21,1.81-.31.7-.58,1.42-.86,2.14-.35.89-.94,1.39-1.94,1.34-.39-.02-.79,0-1.27.16,1.06.52,2.03.66,3.01.07.6-.36,1.2-.75,1.75-1.2.5-.41,1.03-.75,1.61-1.06.81-.43,1.43-1.05,1.47-2.07.01-.34.94-1.39,1.26-1.48.25-.07.39.1.52.25.16.18.02.32-.12.41-.7.43-.99,1.04-1.08,1.85-.06.58-.65.82-1.1,1.12-.34.23-.87.29-1.01.69-.17.47.37.71.63.96.96.92,1.59,2.18,2.82,2.84.21.11.53.26.32.62-.23.41-.48.09-.67-.02-1.25-.76-2.27-1.82-3.43-2.7-.08-.06-.16-.13-.24-.2-.45-.43-.77-.6-1.4-.07-.95.8-2.18,1.03-3.45.91-1.14-.1-2.24-.2-3.36.36-1.19.6-2.52.57-3.8.05-.09-.04-.25-.06-.26-.12-.21-.68-.82-.68-1.34-.81-1.67-.41-3.06-1.32-4.42-2.34-.71-.54-1.45-1.05-1.99-1.74-.99-1.24-2.14-2.39-2.41-4.06-.08-.46-.05-.91-.06-1.37,0-.23.09-.37.34-.44.99-.28,1.83-.87,2.6-1.52.48-.4.67-1.06,1-1.59.09-.14.11-.33.3-.36,1.17-.19,1.27-1.23,1.6-2.07.15-.39-.1-.74-.42-.97-1.03-.74-2.13-1.29-3.45-1.24-1.39.06-2.79-.14-4.17.13-.74.14-2.04,1.5-2.03,2.22.01.44.31.81.56,1.16.13.18.28.31.11.59-.65,1.15-.28,2.35.9,2.9.36.17.46.38.54.73.32,1.49.29,2.93-.39,4.32-.52,1.06-.5,2.21-.6,3.35-.02.23.11.21.27.23.44.05.74-.2.91-.53.25-.46.45-.29.68-.03.29.33.55.68.84,1,.66.72,1.43.78,2.38.6,1.3-.25,2.69-.52,3.85.52.08.07.15.14.22.22.02.03.02.08.03.12-.16.17-.3.05-.44-.03-1.02-.63-2.13-.6-3.24-.39-1.01.19-1.95.23-2.88-.34-.42-.26-.48-.7-.78-1.01-.18-.19-.27-.26-.48-.06-.31.29-.71.44-1.12.52-.32.06-.7.15-.67-.41.01-.26-.25-.32-.38-.45-.6-.58-.7-1.34-.83-2.1-.39-2.3-.79-4.59-.63-6.94.08-1.15.27-2.29.59-3.4.22-.76.21-1.6.78-2.24.22-.25.42-.49.78-.56.46-.1.82-.39,1.15-.72,1.2-1.22,2.45-2.36,3.98-3.15.09-.05.18-.11.27-.16.79-.45,1.39-.9,1.09-2.04-.22-.88-.15-1.84-.23-2.76-.11-1.29.13-2.63,1.42-3.46.36-.23.36-.68.52-1.04.72-1.68,1.25-3.48,2.8-4.67.18-.14.33-.32.5-.47.41-.35.51-.67.3-1.27-.29-.83-.1-1.77-.05-2.66,0-.06.1-.11.25-.24.04.82.3,1.51.14,2.25-.04.2-.06.41-.07.62,0,.14,0,.33.16.37.08.02.22-.1.31-.17,1.38-1.14,2.73-2.31,3.91-3.66.15-.18.19-.35.16-.57-.15-1.23-.73-2.18-1.85-2.73-.34-.17-.8-.14-1.16,0-1.56.58-3.19.89-4.8,1.31-1.41.37-2.14,1.26-2.36,2.65-.07.45-.16.9-.27,1.34-.1.4-.3.74-.77.8-.73.09-1.12-.32-.86-1.03.38-1.07.85-2.1,1.52-3.02.42-.58,1.07-.85,1.7-1.08,1.89-.67,3.85-1.11,5.68-1.98.96-.45,2.86.13,3.53.99.67.87,1.49,1.63,1.86,2.7.07.22.26.26.45.26.78-.02,1.58.2,2.33-.19.14-.07.29-.05.42.03,1.23.76,2.54.32,3.82.28.55-.02,1.1-.05,1.64-.09,1.18-.08,2.36-.18,3.54-.25.44-.03.77-.28.95-.59.4-.65,1.03-1.08,1.46-1.69.28-.4.77-.66.83-1.23.03-.26.38-.34.57-.42,1.05-.45,1.93-1.26,3.09-1.47.16-.03.27-.14.32-.27.23-.62.62-.3.74-.02.15.33.38.38.61.37.35-.01.05-.27.1-.41.06-.18.22-.24.3-.07.52,1.07,1.55.93,2.46,1.03.68.07,1.37.04,2.06.02.55-.02.86.25,1.01.74.36,1.15.72,2.3,1.09,3.44.3.93.63,1.85,1.32,2.57.15.16.12.28.06.44-.3.77-1.15.92-1.68.29-.47-.56-.49-1.22-.36-1.89.08-.41.2-.81.28-1.21.07-.32-.09-.41-.39-.35-.71.15-1.02.66-.84,1.38.67,2.68,1.74,5.23,2.71,7.81.37.99.31,1.68-.76,2.46-.82.6-1.67,1.17-2.55,1.67-1.22.7-1.97.47-2.73-.72-.42-.67-.57-1.41-.66-2.18-.1-.92,0-1.82-.37-2.75-.31-.81-.57-1.7-.76-2.58-.32-1.5-.81-2.95-1.16-4.45-.19-.84-.69-1.62-1.12-2.39-.27-.48-1.67-.68-2.29-.45-.57.21-.87.65-1.14,1.15-.24.44-.23,1.07-.87,1.25-.07.02-.14.15.05.31.7.59.68.62,1.44-.19Zm-8.83,32.77c.8.05,1.59-.28,2.26-.76,1.25-.9,2.64-1.48,4.09-1.91.97-.29,1.34-.95,1.57-1.79.4-1.46.44-2.97.39-4.47-.02-.54-.12-1.07-.27-1.58-.09-.3-.91-.74-1.17-.59-.38.21-.48.59-.4,1.01.3,1.57-.85,3.31-2.38,3.57-.24.04-.49.06-.74.07-.68.03-.79.39-.77,1.02.05,1.25.09,1.87-1.47,2.22-.81.18-1.55.61-2.1,1.27-.32.39-.58.83-.34,1.37.25.55.74.61,1.33.58Zm-8.09-16.52c.07.94.21,1.78.19,2.63,0,.39.17.49.61.41.51-.08,1.07.13,1.46-.39,0,0,.04,0,.06,0,.76.23,1.58,0,2.32.35.18.08.41.11.61.09,1.5-.12,2.76-.71,3.65-1.97.08-.12.19-.23.3-.31.14-.1.42-.1.37-.34-.04-.23-.23-.42-.47-.46-1.15-.19-2.06-.97-3.15-1.3-1.25-.38-2.21-.03-2.86,1.12-.15.27-.29.55-.44.82-.09.15-.21.27-.4.23-.17-.04-.19-.19-.24-.33-.27-.69-.03-1.26.39-1.79.34-.43.55-.9.28-1.43-.26-.5-.35-.99-.18-1.55.16-.52-.26-.98-.76-.96-1.24.06-2.34,1.46-1.98,2.65.26.87.48,1.71.25,2.53Zm-3.77,25.83c.22.19.42.26.65.3,1.06.17,2.08.04,3.04-.4,1.03-.46,2.05-.91,3.18-1.03.26-.03.53-.12.78-.22.93-.39,1.31-1.44.86-2.34-.25-.49-.78-.87-.59-1.54.04-.15-.18-.28-.3-.17-.22.22-.62.42-.51.78.13.42-.11.52-.37.65-1.02.51-2.08.88-3.18,1.15-.76.19-.82.33-.37.99.27.39.56.85.32,1.25-.23.36-.75.48-1.22.48-.56,0-1.12,0-1.68-.01-.18,0-.37-.06-.6.11Zm7.92-38.83c-.34-.15-.48,0-.63.1-1.04.66-2,1.39-2.57,2.54-.29.59-.61,1.19-1.09,1.66-.26.25-.54.43-.82.02-.23-.34-.36-.05-.43.11-.26.56-.69.98-1.08,1.44-.57.68-1.01,1.43-1.09,2.33-.11,1.26-.52,2.42-.98,3.58-.1.24-.44.58-.13.76.36.21.56-.23.73-.49.19-.29.34-.62.46-.94.27-.67.5-1.36.77-2.03.57-1.4,1.15-2.81,2.35-3.82.38-.32.77-.62,1.07-1.03,1.06-1.44,1.87-3.09,3.44-4.21Zm-11.11,7.66c-.93-.02-1.88.91-1.87,1.83,0,.14.06.34-.01.43-.46.52-.08.93.18,1.32.42.63.58,1.27.26,1.99-.06.13-.07.28-.11.42-.03.12-.11.25.05.32.14.06.26-.03.31-.14.37-.87,1.2-1.43,1.61-2.28.35-.71.59-1.41.14-2.18-.17-.28-.21-.6-.03-.94.22-.44-.02-.76-.52-.77Zm-3.85,4.06c.15.25.03.43,0,.63-.06.42.63,1.29,1.04,1.33.37.04.85-.39.94-.85.2-1.07-.59-1.91-1.69-1.8-.7.07-1.02.63-.76,1.36.16-.23.3-.43.47-.67Z"/><path class="cls-2" d="m53.5,78.15c.45.47.85.98,1.37,1.36.5.36.83.24.95-.36.08-.42.29-.19.44-.11.78.41,1.61.78,2.49.61.69-.13,1.25.06,1.85.27.46.16.77-.07.84-.56.13-1.01.91-1.91,1.89-2.17,1.16-.31,2.36-.56,3.48-.96,3.47-1.24,5.93-3.51,6.8-7.22.15-.62.16-1.28.3-1.9.18-.79.44-.85,1.13-.45.41.24.64-.1.71-.46.09-.45.2-.91.16-1.36-.08-.87.4-1.71.02-2.61-.08-.2.2-.69.31-1.04.25-.79.13-1.59.15-2.36.08-2.64.06-5.29.02-7.93-.02-1.24-.2-2.48-.31-3.73-.02-.22-.13-.54.1-.63.29-.1.38.24.51.44,1.11,1.78,2.14,3.61,3.08,5.49.15.29.28.52.68.49.49-.03.7.4.92.74.71,1.1,1.41,2.21,2.2,3.26,1.76,2.34,3.59,4.63,4.98,7.22.83,1.54,1.6,3.12,2.57,4.58.71,1.07,1.51,2.08,2.3,3.09,3.57,4.57,7.28,9.05,8.73,14.86.13.52.3,1.04.43,1.56.07.27.04.41-.34.33-.94-.19-1.67-.73-2.34-1.36-1.05-.98-1.98-2.07-2.83-3.24-.84-1.17-1.18-2.5-1.47-3.87-.38-1.79-1.1-3.48-1.64-5.22-.07-.23-.21-.45-.48-.41-.24.03-.2.28-.23.46-.31,1.97-1.32,3.5-3.01,4.56-1.03.65-2.19.88-3.38.92-1.52.05-3.03.12-4.54.28-1.71.18-3.03,1.12-4.28,2.2-.86.74-1.65,1.56-1.95,2.68-.16.61-.18,1.28-.56,1.81-.42.59-.82,1.15-1.59,1.44-1.18.45-2.4.59-3.6.83-1.69.34-3.03,1.12-3.62,2.86-.16.46-.18.95-.27,1.41-.26,1.38-1.05,2.39-2.22,3.01-.8.43-1.77.56-2.69.65-.4.04-.61-.26-.45-.67.14-.34.31-.68.63-.9.42-.29.71-.7.97-1.12.09-.15.13-.32.01-.47-.15-.18-.33-.14-.51-.03-.4.23-.79.47-1.19.69-.9.5-1.44.42-2.18-.31-.37-.37-.73-.75-1.21-.97-.25-.11-.5-.2-.78-.18-.19.01-.39.05-.5.22-.14.21.07.33.16.48.66,1.01.83,2.14.87,3.31.01.37.04.75,0,1.12-.07.81.15,1.47.81,1.98.14.11.26.27.33.44.1.21.02.4-.14.56-.16.15-.32.14-.51.05-.45-.22-.79-.56-1.04-.97-.68-1.11-1.65-1.77-2.92-2.05-.81-.18-1.6-.44-2.25-1.01-.73-.64-.8-1.27-.35-2.1.28-.51.46-1.08.64-1.63.52-1.6,1.22-3.13,2-4.62.84-1.6.64-3.25.28-4.88-.44-2-.87-3.99-.93-6.05,0-.14.07-.22.14-.33Zm29.18-15.5c-.05-2.57-.46-5.08-1.35-7.5-.07-.18-.09-.48-.37-.39-.25.08-.08.33-.04.49.41,1.65.59,3.34.63,5.04.04,1.74-.25,3.44-.57,5.14-.1.53-.36.97-.58,1.41-.29.58.06,1.21-.29,1.77-.38.61-.59,1.33-.83,1.99-.25.71-.56,1.38-.82,2.08-.51,1.34-1.32,2.51-2.08,3.69-.95,1.49-2.27,2.7-3.64,3.86-1.55,1.32-3.2,2.44-4.96,3.46-.51.3-1.04.6-1.38,1.12-.1.16-.28.33-.16.5.14.19.36,0,.49-.07.94-.42,1.86-.9,2.81-1.32,1.87-.84,3.46-2.12,5.07-3.33.94-.71,1.68-1.73,2.42-2.71,1.56-2.05,2.78-4.28,3.74-6.65,1.11-2.75,1.99-5.55,1.92-8.57Zm-22.96,25.19c-.38.08-.84,0-1,.33-.14.28.3.43.44.68.07.13.17.23.25.35.26.38.48.39.74-.02.43-.69.99-1.2,1.8-1.44.44-.13.87-.26,1.33-.24.23.01.55,0,.57-.25.02-.32-.34-.29-.56-.33-.6-.1-1.15.06-1.65.4-.59.4-1.18.81-1.91.52Z"/><path class="cls-1" d="m56.38,66.95c-.59.03-1.08-.03-1.33-.58-.25-.54.01-.98.34-1.37.55-.66,1.29-1.08,2.1-1.27,1.57-.36,1.52-.97,1.47-2.22-.03-.63.08-.99.77-1.02.25,0,.5-.02.74-.07,1.53-.26,2.68-2,2.38-3.57-.08-.41.02-.8.4-1.01.26-.14,1.08.29,1.17.59.15.51.26,1.04.27,1.58.05,1.51,0,3.01-.39,4.47-.23.84-.6,1.5-1.57,1.79-1.45.42-2.84,1.01-4.09,1.91-.67.48-1.45.81-2.26.76Z"/><path class="cls-1" d="m48.29,50.43c.24-.82.01-1.66-.25-2.53-.36-1.19.74-2.59,1.98-2.65.5-.02.92.44.76.96-.17.57-.08,1.05.18,1.55.28.54.06,1-.28,1.43-.42.53-.66,1.1-.39,1.79.05.14.07.29.24.33.19.04.32-.07.4-.23.15-.27.29-.55.44-.82.65-1.15,1.61-1.5,2.86-1.12,1.09.34,2,1.11,3.15,1.3.24.04.43.23.47.46.04.24-.23.24-.37.34-.12.08-.22.19-.3.31-.89,1.26-2.15,1.85-3.65,1.97-.2.02-.43,0-.61-.09-.74-.35-1.57-.11-2.32-.35-.02,0-.05-.01-.06,0-.39.52-.95.31-1.46.39-.44.07-.61-.03-.61-.41.02-.86-.12-1.7-.19-2.63Zm3.74,2c.4.37.85.47,1.27.59,1.02.3,2.55-.27,3.09-1.15.2-.33.41-.69-.05-1.04.25.6-.11.96-.49,1.27-.87.72-1.82.95-2.89.44-.27-.13-.54-.33-.94-.11Zm4.11-1.64s.03-.02.04-.04c-.01-.01-.02-.02-.04-.04-.01.02-.03.04-.04.05.01,0,.02.01.04.02Z"/><path class="cls-1" d="m44.53,76.26c.23-.17.41-.11.6-.11.56,0,1.12,0,1.68.01.48,0,1-.11,1.22-.48.25-.4-.05-.86-.32-1.25-.45-.66-.39-.81.37-.99,1.1-.27,2.17-.64,3.18-1.15.26-.13.5-.24.37-.65-.11-.36.28-.56.51-.78.12-.11.34.01.3.17-.19.68.34,1.05.59,1.54.45.9.08,1.94-.86,2.34-.25.1-.51.19-.78.22-1.13.13-2.16.57-3.18,1.03-.97.44-1.99.57-3.04.4-.23-.04-.43-.11-.65-.3Z"/><path class="cls-1" d="m52.45,37.43c-1.58,1.12-2.38,2.77-3.44,4.21-.3.41-.69.71-1.07,1.03-1.2,1.02-1.78,2.42-2.35,3.82-.27.67-.5,1.36-.77,2.03-.13.33-.28.65-.46.94-.17.26-.36.71-.73.49-.31-.18.04-.52.13-.76.46-1.16.87-2.33.98-3.58.08-.9.52-1.65,1.09-2.33.39-.46.81-.88,1.08-1.44.08-.16.2-.45.43-.11.29.41.56.23.82-.02.48-.47.79-1.07,1.09-1.66.57-1.15,1.53-1.88,2.57-2.54.15-.09.29-.25.63-.1Z"/><path class="cls-1" d="m41.34,45.09c.5.01.74.33.52.77-.18.35-.14.66.03.94.45.77.21,1.47-.14,2.18-.41.85-1.24,1.4-1.61,2.28-.05.11-.17.21-.31.14-.15-.07-.08-.21-.05-.32.03-.14.05-.29.11-.42.31-.72.16-1.36-.26-1.99-.26-.39-.64-.8-.18-1.32.07-.08.02-.28.01-.43,0-.92.94-1.85,1.87-1.83Z"/><path class="cls-1" d="m37.49,49.14c-.16.23-.31.44-.47.67-.27-.74.05-1.3.76-1.36,1.11-.11,1.9.73,1.69,1.8-.09.46-.56.89-.94.85-.41-.04-1.1-.9-1.04-1.33.03-.19.15-.38,0-.63Z"/><path class="cls-1" d="m82.68,62.65c.07,3.02-.81,5.82-1.92,8.57-.96,2.38-2.17,4.6-3.74,6.65-.74.98-1.48,2-2.42,2.71-1.61,1.21-3.2,2.49-5.07,3.33-.94.42-1.86.9-2.81,1.32-.14.06-.35.26-.49.07-.12-.17.05-.34.16-.5.34-.52.87-.82,1.38-1.12,1.75-1.01,3.41-2.14,4.96-3.46,1.37-1.16,2.69-2.37,3.64-3.86.75-1.18,1.57-2.35,2.08-3.69.26-.7.57-1.37.82-2.08.24-.67.45-1.38.83-1.99.35-.56,0-1.19.29-1.77.22-.44.48-.87.58-1.41.33-1.7.61-3.4.57-5.14-.04-1.7-.21-3.38-.63-5.04-.04-.16-.21-.41.04-.49.28-.09.3.22.37.39.9,2.42,1.3,4.93,1.35,7.5Z"/><path class="cls-1" d="m59.72,87.84c.73.29,1.31-.12,1.91-.52.5-.34,1.05-.5,1.65-.4.23.04.58.01.56.33-.02.25-.34.26-.57.25-.47-.02-.89.11-1.33.24-.81.23-1.37.75-1.8,1.44-.25.41-.48.39-.74.02-.08-.12-.18-.23-.25-.35-.13-.24-.57-.4-.44-.68.16-.34.62-.24,1-.33Z"/><path class="cls-2" d="m52.03,52.43c.41-.23.67-.02.94.11,1.07.51,2.02.29,2.89-.44.38-.31.74-.67.49-1.27.45.36.25.72.05,1.04-.55.88-2.07,1.45-3.09,1.15-.42-.13-.88-.23-1.27-.59Z"/><path class="cls-2" d="m56.15,50.79s-.02-.01-.04-.02c.01-.02.03-.04.04-.05.01.01.02.02.04.04-.01.01-.03.02-.04.04Z"/></g></svg>