<svg width="375" height="123" viewBox="0 0 375 123" fill="none" xmlns="http://www.w3.org/2000/svg">
<g style="mix-blend-mode:luminosity" opacity="0.2">
<path fill-rule="evenodd" clip-rule="evenodd" d="M30.216 122.734H221.289C221.467 120.239 221.557 117.719 221.557 115.177C221.557 59.874 178.664 15.041 125.752 15.041C72.8406 15.041 29.9473 59.874 29.9473 115.177C29.9473 117.719 30.0379 120.239 30.216 122.734Z" fill="#FFE48D"/>
<path d="M343.5 46.42C342.218 44.511 340.02 43.478 337.718 43.564C336.593 43.611 335.445 43.424 334.785 42.68L327.563 34.584C325.815 32.628 322.928 32.596 321.143 34.513L306.863 49.799C306.54 50.144 306.023 50.167 305.67 49.854L294.668 39.105C293.213 37.681 290.925 37.525 289.283 38.73L280.44 45.231C280.305 45.395 280.125 45.497 279.938 45.536L269.813 34.693C268.02 32.776 265.133 32.808 263.393 34.763L256.17 42.86C255.51 43.604 254.363 43.791 253.238 43.744C250.928 43.65 248.73 44.691 247.455 46.6C245.258 49.878 241.808 55.15 237.998 61.049C237.405 60.705 236.723 60.525 236.01 60.548C235.41 60.572 234.803 60.47 234.45 60.079L230.595 55.761C229.665 54.72 228.128 54.697 227.168 55.721L219.555 63.873C219.383 64.061 219.105 64.069 218.918 63.904L213.053 58.17C212.273 57.411 211.058 57.325 210.18 57.975L205.47 61.44C205.395 61.526 205.305 61.581 205.2 61.604L199.8 55.823C198.848 54.798 197.303 54.822 196.373 55.862L192.525 60.181C192.173 60.58 168.428 96.402 168.765 96.402L369.863 96.128C369.908 96.128 369.645 95.963 369.113 95.658H374.723C375.353 95.651 351.398 58.178 343.508 46.412L343.5 46.42Z" fill="#4E968D"/>
<path opacity="0.27" d="M343.5 46.42C342.218 44.511 340.02 43.478 337.718 43.564C336.593 43.611 335.445 43.424 334.785 42.68L327.563 34.584C325.815 32.628 322.928 32.596 321.143 34.513L306.863 49.799C306.54 50.144 306.023 50.167 305.67 49.854L294.668 39.105C293.213 37.681 290.925 37.525 289.283 38.73L280.44 45.231C280.305 45.395 280.125 45.497 279.938 45.536L269.813 34.693C268.02 32.776 265.133 32.808 263.393 34.763L256.17 42.86C255.51 43.604 254.363 43.791 253.238 43.744C250.928 43.65 248.73 44.691 247.455 46.6C245.258 49.878 241.808 55.15 237.998 61.049C237.405 60.705 236.723 60.525 236.01 60.548C235.41 60.572 234.803 60.47 234.45 60.079L230.595 55.761C229.665 54.72 228.128 54.697 227.168 55.721L219.555 63.873C219.383 64.061 219.105 64.069 218.918 63.904L213.053 58.17C212.273 57.411 211.058 57.325 210.18 57.975L205.47 61.44C205.395 61.526 205.305 61.581 205.2 61.604L199.8 55.823C198.848 54.798 197.303 54.822 196.373 55.862L192.525 60.181C192.173 60.58 168.428 96.402 168.765 96.402L369.863 96.128C369.908 96.128 369.645 95.963 369.113 95.658H374.723C375.353 95.651 351.398 58.178 343.508 46.412L343.5 46.42Z" fill="#373449"/>
<path d="M320.423 35.374L313.845 42.203C313.373 42.735 313.898 43.549 314.58 43.353L319.635 41.921C319.883 41.851 320.153 41.921 320.34 42.101L323.34 45.074C323.655 45.387 324.173 45.34 324.428 44.988L326.453 42.18C326.618 41.953 326.895 41.843 327.173 41.898L333.263 43.071C333.938 43.197 334.388 42.407 333.93 41.906L327.975 34.857C325.568 32.182 322.8 32.682 320.423 35.381V35.374Z" fill="#74C1B9"/>
<path d="M271.14 36.109L277.635 43.017C278.062 43.58 277.065 44.73 276.397 44.487L271.462 42.704C271.215 42.618 270.945 42.665 270.75 42.837L267.54 45.591C267.202 45.88 266.692 45.802 266.46 45.426L264.645 42.477C264.502 42.242 264.225 42.109 263.947 42.141L257.782 42.876C257.1 42.954 256.71 42.133 257.197 41.663L263.512 34.333C266.107 31.838 268.957 33.254 271.14 36.117V36.109Z" fill="#74C1B9"/>
<path d="M226.77 56.191L223.26 59.836C223.013 60.118 223.283 60.556 223.65 60.447L226.343 59.68C226.478 59.641 226.62 59.68 226.718 59.774L228.315 61.362C228.48 61.526 228.758 61.503 228.893 61.315L229.973 59.821C230.063 59.703 230.213 59.641 230.355 59.672L233.603 60.298C233.963 60.368 234.203 59.946 233.963 59.672L230.79 55.917C229.508 54.493 228.03 54.759 226.763 56.199L226.77 56.191Z" fill="#74C1B9"/>
<path d="M200.498 56.582L203.955 60.267C204.188 60.564 203.648 61.182 203.295 61.049L200.663 60.095C200.535 60.048 200.385 60.071 200.28 60.165L198.57 61.636C198.39 61.792 198.12 61.745 197.993 61.55L197.025 59.977C196.95 59.852 196.8 59.782 196.658 59.797L193.373 60.188C193.013 60.235 192.803 59.797 193.058 59.539L196.425 55.628C197.805 54.298 199.328 55.057 200.49 56.582H200.498Z" fill="#74C1B9"/>
<path d="M290.044 70.002C283.3 69.558 276.647 69.441 270.098 69.612C263.55 69.441 256.896 69.558 250.153 70.002C199.38 73.342 155.419 93.845 129 122.734H375V94.445C351.142 80.981 321.937 72.104 290.044 70.002Z" fill="#57AA9E"/>
<path d="M150.15 123C123.765 93.976 79.86 73.378 29.1525 70.022C19.23 69.365 9.48 69.404 0 70.069V122.992H150.15V123Z" fill="#4E968D"/>
<path d="M21.9822 56.238C21.9822 56.238 21.6447 55.189 20.6922 55.197C20.4297 55.197 20.2197 54.978 20.2422 54.704C20.3247 53.711 20.3922 51.747 19.7322 51.051C19.2522 50.55 18.3972 50.3 17.8947 50.331C17.6622 50.347 17.4672 50.159 17.4447 49.917C17.3472 48.814 16.9722 46.686 15.5697 46.389C15.3822 46.334 15.2247 46.334 15.1272 46.334C15.0297 46.334 14.8722 46.334 14.6847 46.389C13.2822 46.694 12.9072 48.814 12.8097 49.917C12.7872 50.159 12.5922 50.339 12.3597 50.331C11.8497 50.3 10.9947 50.558 10.5222 51.051C9.85469 51.747 9.92969 53.711 10.0122 54.704C10.0347 54.978 9.82469 55.197 9.56219 55.197C8.60219 55.189 8.27219 56.238 8.27219 56.238C6.57719 60.22 14.0322 64.194 14.9547 64.663C15.0147 64.695 15.0822 64.71 15.1497 64.71C15.2172 64.71 15.2847 64.695 15.3447 64.663C16.2597 64.194 23.7222 60.212 22.0272 56.238H21.9822Z" fill="#4E968D"/>
<path d="M14.9851 69.412C14.8651 69.412 14.7676 69.31 14.7676 69.185V52.232C14.7676 52.107 14.8651 52.005 14.9851 52.005C15.1051 52.005 15.2026 52.107 15.2026 52.232V69.185C15.2026 69.31 15.1051 69.412 14.9851 69.412Z" fill="#373449"/>
<path d="M14.985 58.006C14.925 58.006 14.865 57.982 14.82 57.928L12.5625 55.213C12.48 55.119 12.495 54.97 12.585 54.892C12.675 54.806 12.8175 54.822 12.8925 54.916L15.15 57.63C15.2325 57.724 15.2175 57.873 15.1275 57.951C15.0825 57.99 15.0375 58.006 14.985 58.006Z" fill="#373449"/>
<path d="M14.9852 60.001C14.9327 60.001 14.8877 59.985 14.8427 59.946C14.7527 59.868 14.7377 59.719 14.8127 59.625L17.0702 56.801C17.1452 56.707 17.2877 56.691 17.3777 56.77C17.4677 56.848 17.4827 56.997 17.4077 57.09L15.1502 59.915C15.1052 59.969 15.0452 60.001 14.9777 60.001H14.9852Z" fill="#373449"/>
<path d="M52.7322 58.585C52.7322 58.585 52.3947 57.536 51.4422 57.544C51.1797 57.544 50.9697 57.325 50.9922 57.051C51.0747 56.058 51.1422 54.094 50.4822 53.398C50.0022 52.897 49.1472 52.647 48.6447 52.678C48.4122 52.694 48.2172 52.506 48.1947 52.264C48.0972 51.161 47.7222 49.033 46.3197 48.735C46.1322 48.681 45.9747 48.681 45.8772 48.681C45.7797 48.681 45.6222 48.681 45.4347 48.735C44.0322 49.041 43.6572 51.161 43.5597 52.264C43.5372 52.506 43.3422 52.686 43.1097 52.678C42.5997 52.647 41.7447 52.905 41.2722 53.398C40.6047 54.094 40.6797 56.058 40.7622 57.051C40.7847 57.325 40.5747 57.544 40.3122 57.544C39.3522 57.536 39.0222 58.585 39.0222 58.585C37.3272 62.567 44.7822 66.541 45.7047 67.01C45.7647 67.041 45.8322 67.057 45.8997 67.057C45.9672 67.057 46.0347 67.041 46.0947 67.01C47.0097 66.541 54.4722 62.559 52.7772 58.585H52.7322Z" fill="#4E968D"/>
<path d="M45.7351 71.759C45.6151 71.759 45.5176 71.657 45.5176 71.532V54.579C45.5176 54.454 45.6151 54.352 45.7351 54.352C45.8551 54.352 45.9526 54.454 45.9526 54.579V71.532C45.9526 71.657 45.8551 71.759 45.7351 71.759Z" fill="#373449"/>
<path d="M45.735 60.353C45.675 60.353 45.615 60.329 45.57 60.275L43.3125 57.56C43.23 57.466 43.245 57.317 43.335 57.239C43.425 57.153 43.5675 57.169 43.6425 57.263L45.9 59.977C45.9825 60.071 45.9675 60.22 45.8775 60.298C45.8325 60.337 45.7875 60.353 45.735 60.353Z" fill="#373449"/>
<path d="M45.7352 62.348C45.6827 62.348 45.6377 62.332 45.5927 62.293C45.5027 62.215 45.4877 62.066 45.5627 61.972L47.8202 59.148C47.8952 59.054 48.0377 59.038 48.1277 59.117C48.2177 59.195 48.2327 59.344 48.1577 59.437L45.9002 62.262C45.8552 62.316 45.7952 62.348 45.7277 62.348H45.7352Z" fill="#373449"/>
<path d="M37.8525 70.429C37.8525 70.429 37.4625 69.201 36.3375 69.216C36.03 69.216 35.7825 68.958 35.8125 68.645C35.91 67.487 35.9925 65.187 35.2125 64.374C34.65 63.787 33.6525 63.49 33.06 63.529C32.79 63.545 32.5575 63.325 32.5275 63.044C32.4075 61.753 31.9725 59.265 30.33 58.913C30.105 58.851 29.925 58.843 29.8125 58.851C29.7 58.851 29.5125 58.851 29.295 58.913C27.6525 59.265 27.2175 61.753 27.0975 63.044C27.075 63.325 26.8425 63.545 26.565 63.529C25.9725 63.498 24.975 63.787 24.4125 64.374C23.6325 65.187 23.715 67.487 23.8125 68.645C23.8425 68.966 23.5875 69.224 23.2875 69.216C22.17 69.208 21.7725 70.429 21.7725 70.429C19.7925 75.084 28.5075 79.731 29.58 80.286C29.6475 80.325 29.73 80.341 29.805 80.341C29.88 80.341 29.9625 80.325 30.03 80.286C31.1025 79.738 39.825 75.084 37.8375 70.429H37.8525Z" fill="#74C1B9"/>
<path d="M29.67 85.84C29.5275 85.84 29.415 85.723 29.415 85.574V65.751C29.415 65.602 29.5275 65.485 29.67 65.485C29.8125 65.485 29.925 65.602 29.925 65.751V85.574C29.925 85.723 29.8125 85.84 29.67 85.84Z" fill="#373449"/>
<path d="M29.6698 72.502C29.5948 72.502 29.5273 72.471 29.4748 72.408L26.8348 69.232C26.7448 69.122 26.7523 68.95 26.8573 68.849C26.9623 68.755 27.1273 68.763 27.2173 68.872L29.8573 72.048C29.9473 72.158 29.9398 72.33 29.8348 72.424C29.7898 72.471 29.7223 72.486 29.6623 72.486L29.6698 72.502Z" fill="#373449"/>
<path d="M29.6698 74.833C29.6098 74.833 29.5498 74.81 29.5048 74.771C29.3923 74.677 29.3773 74.505 29.4748 74.395L32.1148 71.094C32.2048 70.976 32.3698 70.961 32.4748 71.063C32.5873 71.156 32.6023 71.329 32.5048 71.438L29.8648 74.739C29.8123 74.802 29.7373 74.833 29.6698 74.833Z" fill="#373449"/>
<path d="M23.9252 93.124C23.9252 93.124 23.4527 91.653 22.1102 91.661C21.7427 91.661 21.4427 91.356 21.4727 90.972C21.5927 89.58 21.6827 86.81 20.7527 85.84C20.0777 85.136 18.8777 84.784 18.1652 84.823C17.8352 84.839 17.5577 84.581 17.5277 84.244C17.3852 82.688 16.8602 79.699 14.8877 79.277C14.6252 79.199 14.4002 79.199 14.2652 79.206C14.1302 79.206 13.9052 79.206 13.6427 79.277C11.6702 79.699 11.1452 82.688 11.0027 84.244C10.9727 84.581 10.6952 84.847 10.3652 84.823C9.65273 84.784 8.45273 85.136 7.77773 85.84C6.84023 86.818 6.93773 89.58 7.05773 90.972C7.08773 91.356 6.78773 91.669 6.42023 91.661C5.07023 91.645 4.60523 93.124 4.60523 93.124C2.22023 98.717 12.7127 104.318 14.0027 104.983C14.0852 105.03 14.1827 105.046 14.2727 105.046C14.3702 105.046 14.4602 105.023 14.5427 104.983C15.8327 104.318 26.3252 98.725 23.9402 93.124H23.9252Z" fill="#8FE5DD"/>
<path d="M14.0848 111.657C13.9123 111.657 13.7773 111.508 13.7773 111.336V87.491C13.7773 87.311 13.9198 87.17 14.0848 87.17C14.2498 87.17 14.3923 87.319 14.3923 87.491V111.336C14.3923 111.516 14.2498 111.657 14.0848 111.657Z" fill="#373449"/>
<path d="M14.0853 95.604C13.9953 95.604 13.9128 95.565 13.8528 95.494L10.6803 91.676C10.5678 91.543 10.5828 91.34 10.7103 91.223C10.8378 91.105 11.0328 91.121 11.1453 91.254L14.3178 95.072C14.4303 95.205 14.4153 95.408 14.2878 95.525C14.2278 95.58 14.1603 95.604 14.0853 95.604Z" fill="#373449"/>
<path d="M14.0849 98.412C14.0174 98.412 13.9424 98.389 13.8899 98.334C13.7549 98.216 13.7399 98.013 13.8524 97.88L17.025 93.906C17.1374 93.765 17.3324 93.749 17.4599 93.867C17.5949 93.984 17.6099 94.188 17.4974 94.321L14.3249 98.295C14.2649 98.373 14.1749 98.412 14.0849 98.412Z" fill="#373449"/>
<path d="M86.1752 99.382C86.1752 99.382 85.7027 97.911 84.3602 97.919C83.9927 97.919 83.6927 97.614 83.7227 97.231C83.8427 95.838 83.9327 93.069 83.0027 92.099C82.3277 91.395 81.1277 91.043 80.4152 91.082C80.0852 91.097 79.8077 90.839 79.7777 90.503C79.6352 88.946 79.1102 85.958 77.1377 85.535C76.8752 85.457 76.6502 85.457 76.5152 85.465C76.3802 85.465 76.1552 85.465 75.8927 85.535C73.9202 85.958 73.3952 88.946 73.2527 90.503C73.2227 90.839 72.9452 91.105 72.6152 91.082C71.9027 91.043 70.7027 91.395 70.0277 92.099C69.0902 93.077 69.1877 95.838 69.3077 97.231C69.3377 97.614 69.0377 97.927 68.6702 97.919C67.3202 97.904 66.8552 99.382 66.8552 99.382C64.4702 104.976 74.9627 110.577 76.2527 111.242C76.3352 111.289 76.4327 111.305 76.5227 111.305C76.6202 111.305 76.7102 111.281 76.7927 111.242C78.0827 110.577 88.5752 104.983 86.1902 99.382H86.1752Z" fill="#8FE5DD"/>
<path d="M76.3348 117.915C76.1623 117.915 76.0273 117.766 76.0273 117.594V93.749C76.0273 93.57 76.1698 93.429 76.3348 93.429C76.4998 93.429 76.6423 93.577 76.6423 93.749V117.594C76.6423 117.774 76.4998 117.915 76.3348 117.915Z" fill="#373449"/>
<path d="M76.3353 101.862C76.2453 101.862 76.1628 101.823 76.1028 101.753L72.9303 97.935C72.8178 97.802 72.8328 97.598 72.9603 97.481C73.0878 97.364 73.2828 97.379 73.3953 97.512L76.5678 101.33C76.6803 101.463 76.6653 101.666 76.5378 101.784C76.4778 101.839 76.4103 101.862 76.3353 101.862Z" fill="#373449"/>
<path d="M76.3349 104.671C76.2674 104.671 76.1924 104.647 76.1399 104.592C76.0049 104.475 75.99 104.272 76.1025 104.139L79.2749 100.164C79.3874 100.024 79.5824 100.008 79.7099 100.125C79.8449 100.243 79.86 100.446 79.7475 100.579L76.5749 104.553C76.5149 104.631 76.4249 104.671 76.3349 104.671Z" fill="#373449"/>
<path d="M53.9252 93.906C53.9252 93.906 53.4527 92.435 52.1102 92.443C51.7427 92.443 51.4427 92.138 51.4727 91.755C51.5927 90.362 51.6827 87.593 50.7527 86.623C50.0777 85.919 48.8777 85.567 48.1652 85.606C47.8352 85.621 47.5577 85.363 47.5277 85.027C47.3852 83.47 46.8602 80.482 44.8877 80.059C44.6252 79.981 44.4002 79.981 44.2652 79.989C44.1302 79.989 43.9052 79.989 43.6427 80.059C41.6702 80.482 41.1452 83.47 41.0027 85.027C40.9727 85.363 40.6952 85.629 40.3652 85.606C39.6527 85.567 38.4527 85.919 37.7777 86.623C36.8402 87.601 36.9377 90.362 37.0577 91.755C37.0877 92.138 36.7877 92.451 36.4202 92.443C35.0702 92.427 34.6052 93.906 34.6052 93.906C32.2202 99.499 42.7127 105.101 44.0027 105.766C44.0852 105.813 44.1827 105.828 44.2727 105.828C44.3702 105.828 44.4602 105.805 44.5427 105.766C45.8327 105.101 56.3252 99.507 53.9402 93.906H53.9252Z" fill="#8FE5DD"/>
<path d="M44.0848 112.439C43.9123 112.439 43.7773 112.29 43.7773 112.118V88.273C43.7773 88.093 43.9198 87.953 44.0848 87.953C44.2498 87.953 44.3923 88.101 44.3923 88.273V112.118C44.3923 112.298 44.2498 112.439 44.0848 112.439Z" fill="#373449"/>
<path d="M44.0853 96.386C43.9953 96.386 43.9128 96.347 43.8528 96.276L40.6803 92.459C40.5678 92.326 40.5828 92.122 40.7103 92.005C40.8378 91.888 41.0328 91.903 41.1453 92.036L44.3178 95.854C44.4303 95.987 44.4153 96.19 44.2878 96.308C44.2278 96.362 44.1603 96.386 44.0853 96.386Z" fill="#373449"/>
<path d="M44.0849 99.194C44.0174 99.194 43.9424 99.171 43.8899 99.116C43.7549 98.999 43.7399 98.795 43.8524 98.662L47.0249 94.688C47.1374 94.547 47.3324 94.532 47.4599 94.649C47.5949 94.766 47.61 94.97 47.4974 95.103L44.3249 99.077C44.2649 99.155 44.1749 99.194 44.0849 99.194Z" fill="#373449"/>
<path d="M70.0872 75.842C70.0872 75.842 69.6897 74.622 68.5647 74.638C68.2572 74.638 68.0097 74.387 68.0322 74.067C68.1222 72.909 68.1822 70.609 67.4022 69.803C66.8397 69.224 65.8422 68.935 65.2422 68.974C64.9722 68.989 64.7397 68.778 64.7097 68.497C64.5822 67.206 64.1322 64.726 62.4822 64.382C62.2572 64.319 62.0772 64.319 61.9647 64.327C61.8522 64.327 61.6647 64.327 61.4472 64.389C59.8047 64.757 59.3922 67.245 59.2797 68.536C59.2572 68.817 59.0247 69.036 58.7547 69.021C58.1622 68.989 57.1647 69.295 56.6097 69.881C55.8372 70.695 55.9347 72.995 56.0397 74.153C56.0697 74.473 55.8222 74.732 55.5147 74.732C54.3972 74.732 54.0147 75.96 54.0147 75.96C52.0647 80.63 60.8172 85.215 61.8972 85.754C61.9647 85.793 62.0472 85.809 62.1222 85.809C62.1972 85.809 62.2797 85.793 62.3472 85.754C63.4197 85.191 72.1047 80.474 70.0872 75.835V75.842Z" fill="#74C1B9"/>
<path d="M62.0173 91.324C61.8748 91.324 61.7623 91.207 61.7548 91.058L61.6123 71.235C61.6123 71.086 61.7248 70.969 61.8673 70.961C62.0098 70.953 62.1223 71.078 62.1298 71.227L62.2723 91.051C62.2723 91.199 62.1598 91.324 62.0173 91.324Z" fill="#373449"/>
<path d="M61.9199 77.978C61.8449 77.978 61.7774 77.947 61.7249 77.884L59.0624 74.732C58.9649 74.622 58.9799 74.45 59.0849 74.348C59.1899 74.246 59.3549 74.262 59.4524 74.372L62.1149 77.524C62.2124 77.634 62.1974 77.806 62.0924 77.908C62.0474 77.955 61.9874 77.978 61.9274 77.978H61.9199Z" fill="#373449"/>
<path d="M61.9426 80.309C61.8826 80.309 61.8226 80.294 61.7776 80.247C61.6651 80.153 61.6501 79.981 61.7401 79.871L64.3576 76.547C64.4476 76.429 64.6126 76.414 64.7176 76.507C64.8301 76.601 64.8451 76.773 64.7551 76.883L62.1376 80.208C62.0851 80.27 62.0176 80.302 61.9426 80.309Z" fill="#373449"/>
<path d="M343.26 71.657C343.26 71.657 343.56 70.718 344.422 70.726C344.655 70.726 344.85 70.531 344.827 70.288C344.752 69.396 344.692 67.628 345.285 67.01C345.712 66.564 346.477 66.337 346.935 66.361C347.145 66.377 347.325 66.204 347.34 65.993C347.43 65 347.767 63.091 349.027 62.817C349.2 62.77 349.342 62.762 349.425 62.77C349.515 62.77 349.657 62.77 349.822 62.817C351.082 63.091 351.42 65 351.51 65.993C351.532 66.212 351.705 66.377 351.915 66.361C352.372 66.337 353.137 66.564 353.565 67.01C354.165 67.636 354.097 69.396 354.022 70.288C354 70.531 354.195 70.734 354.427 70.726C355.29 70.718 355.59 71.657 355.59 71.657C357.112 75.232 350.415 78.807 349.59 79.23C349.537 79.261 349.477 79.269 349.417 79.269C349.357 79.269 349.297 79.253 349.245 79.23C348.42 78.807 341.722 75.232 343.245 71.657H343.26Z" fill="#4E968D"/>
<path d="M349.545 83.493C349.658 83.493 349.74 83.4 349.74 83.29V68.066C349.74 67.949 349.65 67.863 349.545 67.863C349.44 67.863 349.35 67.957 349.35 68.066V83.29C349.35 83.407 349.44 83.493 349.545 83.493Z" fill="#373449"/>
<path d="M349.545 73.245C349.597 73.245 349.657 73.222 349.695 73.175L351.72 70.734C351.795 70.648 351.78 70.515 351.697 70.445C351.615 70.366 351.487 70.382 351.42 70.468L349.395 72.909C349.32 72.995 349.335 73.128 349.417 73.198C349.455 73.23 349.5 73.245 349.545 73.245Z" fill="#373449"/>
<path d="M349.545 75.037C349.59 75.037 349.635 75.021 349.672 74.99C349.755 74.919 349.77 74.786 349.695 74.7L347.67 72.166C347.602 72.08 347.475 72.064 347.392 72.142C347.31 72.213 347.295 72.346 347.37 72.432L349.395 74.966C349.432 75.013 349.492 75.044 349.545 75.044V75.037Z" fill="#373449"/>
<path d="M310.252 61.792C310.252 61.792 310.545 60.877 311.385 60.885C311.617 60.885 311.797 60.697 311.782 60.454C311.707 59.586 311.647 57.865 312.232 57.263C312.652 56.825 313.395 56.606 313.845 56.629C314.047 56.645 314.22 56.48 314.242 56.269C314.332 55.299 314.655 53.445 315.885 53.179C316.05 53.132 316.192 53.132 316.275 53.132C316.357 53.132 316.5 53.132 316.665 53.179C317.895 53.445 318.217 55.299 318.307 56.269C318.33 56.48 318.502 56.645 318.705 56.629C319.147 56.606 319.897 56.825 320.317 57.263C320.895 57.873 320.835 59.594 320.767 60.454C320.745 60.697 320.932 60.885 321.165 60.885C322.005 60.877 322.297 61.792 322.297 61.792C323.782 65.273 317.257 68.755 316.455 69.169C316.402 69.193 316.342 69.208 316.29 69.208C316.23 69.208 316.177 69.193 316.125 69.169C315.322 68.755 308.797 65.273 310.282 61.792H310.252Z" fill="#4E968D"/>
<path d="M316.373 73.323C316.478 73.323 316.568 73.23 316.568 73.12V58.287C316.568 58.178 316.478 58.084 316.373 58.084C316.268 58.084 316.178 58.178 316.178 58.287V73.12C316.178 73.23 316.268 73.323 316.373 73.323Z" fill="#373449"/>
<path d="M316.372 63.341C316.425 63.341 316.477 63.318 316.515 63.271L318.487 60.893C318.555 60.806 318.547 60.681 318.465 60.611C318.382 60.54 318.262 60.548 318.195 60.634L316.222 63.013C316.155 63.099 316.162 63.224 316.245 63.294C316.282 63.325 316.327 63.341 316.372 63.341Z" fill="#373449"/>
<path d="M316.373 65.086C316.418 65.086 316.463 65.07 316.493 65.039C316.575 64.968 316.583 64.843 316.515 64.757L314.543 62.285C314.475 62.199 314.355 62.191 314.273 62.262C314.19 62.332 314.183 62.457 314.25 62.543L316.223 65.015C316.26 65.062 316.313 65.086 316.373 65.086Z" fill="#373449"/>
<path d="M322.913 73.558C322.913 73.558 323.303 72.33 324.428 72.346C324.735 72.346 324.983 72.087 324.953 71.774C324.855 70.617 324.773 68.317 325.553 67.503C326.115 66.916 327.113 66.619 327.705 66.658C327.975 66.674 328.208 66.455 328.238 66.173C328.358 64.882 328.793 62.395 330.435 62.043C330.653 61.98 330.84 61.972 330.953 61.98C331.065 61.98 331.253 61.98 331.47 62.043C333.113 62.395 333.548 64.882 333.668 66.173C333.69 66.455 333.923 66.674 334.2 66.658C334.793 66.627 335.79 66.916 336.353 67.503C337.133 68.317 337.05 70.617 336.953 71.774C336.923 72.095 337.178 72.353 337.478 72.346C338.595 72.338 338.993 73.558 338.993 73.558C340.973 78.213 332.258 82.86 331.185 83.415C331.118 83.454 331.035 83.47 330.96 83.47C330.885 83.47 330.803 83.454 330.735 83.415C329.663 82.868 320.94 78.213 322.928 73.558H322.913Z" fill="#74C1B9"/>
<path d="M331.095 88.97C331.237 88.97 331.35 88.852 331.35 88.704V68.88C331.35 68.731 331.237 68.614 331.095 68.614C330.952 68.614 330.84 68.731 330.84 68.88V88.704C330.84 88.852 330.952 88.97 331.095 88.97Z" fill="#373449"/>
<path d="M331.095 75.631C331.17 75.631 331.238 75.6 331.29 75.537L333.93 72.361C334.02 72.252 334.013 72.08 333.908 71.978C333.803 71.884 333.638 71.892 333.548 72.001L330.908 75.178C330.818 75.287 330.825 75.459 330.93 75.553C330.975 75.6 331.043 75.616 331.103 75.616L331.095 75.631Z" fill="#373449"/>
<path d="M331.095 77.963C331.155 77.963 331.215 77.939 331.26 77.9C331.372 77.806 331.387 77.634 331.29 77.524L328.65 74.223C328.56 74.106 328.395 74.09 328.29 74.192C328.177 74.286 328.162 74.458 328.26 74.567L330.9 77.869C330.952 77.931 331.027 77.963 331.095 77.963Z" fill="#373449"/>
<path d="M334.59 95.471C334.59 95.471 335.062 94 336.405 94.008C336.772 94.008 337.072 93.703 337.042 93.319C336.922 91.927 336.832 89.157 337.762 88.187C338.437 87.483 339.637 87.131 340.35 87.17C340.68 87.186 340.957 86.928 340.987 86.591C341.13 85.035 341.655 82.046 343.627 81.624C343.89 81.545 344.115 81.545 344.25 81.553C344.385 81.553 344.61 81.553 344.872 81.624C346.845 82.046 347.37 85.035 347.512 86.591C347.542 86.928 347.82 87.194 348.15 87.17C348.862 87.131 350.062 87.483 350.737 88.187C351.675 89.165 351.577 91.927 351.457 93.319C351.427 93.703 351.727 94.015 352.095 94.008C353.445 93.992 353.91 95.471 353.91 95.471C356.295 101.064 345.802 106.665 344.512 107.33C344.43 107.377 344.332 107.393 344.242 107.393C344.145 107.393 344.055 107.369 343.972 107.33C342.682 106.665 332.19 101.072 334.575 95.471H334.59Z" fill="#8FE5DD"/>
<path d="M344.437 114.003C344.61 114.003 344.745 113.855 344.745 113.683V89.838C344.745 89.658 344.602 89.517 344.437 89.517C344.272 89.517 344.13 89.666 344.13 89.838V113.683C344.13 113.863 344.272 114.003 344.437 114.003Z" fill="#373449"/>
<path d="M344.438 97.951C344.528 97.951 344.61 97.911 344.67 97.841L347.843 94.023C347.955 93.89 347.94 93.687 347.813 93.57C347.685 93.452 347.49 93.468 347.378 93.601L344.205 97.419C344.093 97.552 344.108 97.755 344.235 97.872C344.295 97.927 344.363 97.951 344.438 97.951Z" fill="#373449"/>
<path d="M344.437 100.759C344.505 100.759 344.58 100.735 344.632 100.681C344.767 100.563 344.782 100.36 344.67 100.227L341.497 96.253C341.385 96.112 341.19 96.096 341.062 96.214C340.927 96.331 340.912 96.534 341.025 96.667L344.197 100.642C344.257 100.72 344.347 100.759 344.437 100.759Z" fill="#373449"/>
<path d="M268.59 83.736C268.59 83.736 269.062 82.265 270.405 82.273C270.772 82.273 271.072 81.968 271.042 81.585C270.922 80.192 270.832 77.423 271.762 76.453C272.437 75.749 273.637 75.397 274.35 75.436C274.68 75.451 274.957 75.193 274.987 74.857C275.13 73.3 275.655 70.312 277.627 69.889C277.89 69.811 278.115 69.811 278.25 69.819C278.385 69.819 278.61 69.819 278.872 69.889C280.845 70.312 281.37 73.3 281.512 74.857C281.542 75.193 281.82 75.459 282.15 75.436C282.862 75.397 284.062 75.749 284.737 76.453C285.675 77.431 285.577 80.192 285.457 81.585C285.427 81.968 285.727 82.281 286.095 82.273C287.445 82.257 287.91 83.736 287.91 83.736C290.295 89.329 279.802 94.931 278.512 95.596C278.43 95.643 278.332 95.658 278.242 95.658C278.145 95.658 278.055 95.635 277.972 95.596C276.682 94.931 266.19 89.337 268.575 83.736H268.59Z" fill="#8FE5DD"/>
<path d="M278.437 102.269C278.61 102.269 278.745 102.12 278.745 101.948V78.103C278.745 77.923 278.602 77.783 278.437 77.783C278.272 77.783 278.13 77.931 278.13 78.103V101.948C278.13 102.128 278.272 102.269 278.437 102.269Z" fill="#373449"/>
<path d="M278.437 86.216C278.527 86.216 278.61 86.177 278.67 86.106L281.842 82.289C281.955 82.156 281.94 81.952 281.812 81.835C281.685 81.718 281.49 81.733 281.377 81.866L278.205 85.684C278.092 85.817 278.107 86.02 278.235 86.138C278.295 86.192 278.362 86.216 278.437 86.216Z" fill="#373449"/>
<path d="M278.438 89.024C278.505 89.024 278.58 89.001 278.633 88.946C278.768 88.829 278.783 88.625 278.67 88.492L275.498 84.518C275.385 84.377 275.19 84.362 275.063 84.479C274.928 84.596 274.913 84.8 275.025 84.933L278.198 88.907C278.258 88.985 278.348 89.024 278.438 89.024Z" fill="#373449"/>
<path d="M301.59 86.083C301.59 86.083 302.062 84.612 303.405 84.62C303.772 84.62 304.072 84.315 304.042 83.932C303.922 82.539 303.832 79.77 304.762 78.8C305.437 78.096 306.637 77.744 307.35 77.783C307.68 77.798 307.957 77.54 307.987 77.204C308.13 75.647 308.655 72.658 310.627 72.236C310.89 72.158 311.115 72.158 311.25 72.166C311.385 72.166 311.61 72.166 311.872 72.236C313.845 72.658 314.37 75.647 314.512 77.204C314.542 77.54 314.82 77.806 315.15 77.783C315.862 77.744 317.062 78.096 317.737 78.8C318.675 79.778 318.577 82.539 318.457 83.932C318.427 84.315 318.727 84.628 319.095 84.62C320.445 84.604 320.91 86.083 320.91 86.083C323.295 91.676 312.802 97.278 311.512 97.943C311.43 97.99 311.332 98.005 311.242 98.005C311.145 98.005 311.055 97.982 310.972 97.943C309.682 97.278 299.19 91.684 301.575 86.083H301.59Z" fill="#8FE5DD"/>
<path d="M311.437 104.616C311.61 104.616 311.745 104.467 311.745 104.295V80.45C311.745 80.27 311.602 80.129 311.437 80.129C311.272 80.129 311.13 80.278 311.13 80.45V104.295C311.13 104.475 311.272 104.616 311.437 104.616Z" fill="#373449"/>
<path d="M311.438 88.563C311.528 88.563 311.61 88.524 311.67 88.453L314.843 84.636C314.955 84.503 314.94 84.299 314.813 84.182C314.685 84.065 314.49 84.08 314.378 84.213L311.205 88.031C311.093 88.164 311.108 88.367 311.235 88.485C311.295 88.539 311.363 88.563 311.438 88.563Z" fill="#373449"/>
<path d="M311.437 91.371C311.505 91.371 311.58 91.348 311.632 91.293C311.767 91.176 311.782 90.972 311.67 90.839L308.497 86.865C308.385 86.724 308.19 86.709 308.062 86.826C307.927 86.943 307.912 87.147 308.025 87.28L311.197 91.254C311.257 91.332 311.347 91.371 311.437 91.371Z" fill="#373449"/>
<path d="M286.928 67.237C286.928 67.237 287.325 66.017 288.45 66.032C288.758 66.032 289.005 65.782 288.983 65.461C288.893 64.303 288.833 62.003 289.613 61.198C290.175 60.619 291.173 60.329 291.773 60.368C292.043 60.384 292.275 60.173 292.305 59.891C292.433 58.6 292.883 56.12 294.533 55.776C294.758 55.714 294.938 55.714 295.05 55.721C295.163 55.721 295.35 55.721 295.568 55.784C297.21 56.152 297.623 58.639 297.735 59.93C297.758 60.212 297.99 60.431 298.26 60.415C298.853 60.384 299.85 60.689 300.405 61.276C301.178 62.089 301.08 64.389 300.975 65.547C300.945 65.868 301.193 66.126 301.5 66.126C302.618 66.126 303 67.354 303 67.354C304.95 72.025 296.198 76.609 295.118 77.149C295.05 77.188 294.968 77.204 294.893 77.204C294.818 77.204 294.735 77.188 294.668 77.149C293.595 76.586 284.91 71.868 286.928 67.229V67.237Z" fill="#74C1B9"/>
<path d="M294.997 82.719C295.14 82.719 295.252 82.602 295.26 82.453L295.402 62.629C295.402 62.481 295.29 62.363 295.147 62.355C295.005 62.355 294.892 62.473 294.885 62.621L294.742 82.445C294.742 82.594 294.855 82.719 294.997 82.719Z" fill="#373449"/>
<path d="M295.095 69.373C295.17 69.373 295.238 69.341 295.29 69.279L297.953 66.126C298.05 66.017 298.035 65.844 297.93 65.743C297.825 65.641 297.66 65.657 297.563 65.766L294.9 68.919C294.803 69.028 294.818 69.201 294.923 69.302C294.968 69.349 295.028 69.373 295.088 69.373H295.095Z" fill="#373449"/>
<path d="M295.08 71.704C295.14 71.704 295.2 71.688 295.245 71.641C295.357 71.548 295.372 71.375 295.282 71.266L292.665 67.941C292.575 67.824 292.41 67.808 292.305 67.902C292.192 67.996 292.177 68.168 292.267 68.278L294.885 71.602C294.937 71.665 295.005 71.696 295.08 71.704Z" fill="#373449"/>
<path d="M363.995 14.767H359.217C359.228 14.523 359.239 14.284 359.239 14.039C359.239 6.41 353.252 0.164001 345.938 0.164001C338.625 0.164001 332.637 6.41 332.637 14.039C332.637 14.284 332.643 14.528 332.659 14.767H328.999C325.148 14.767 322 18.051 322 22.069C322 26.086 325.148 29.37 328.999 29.37H364.001C367.852 29.37 371 26.086 371 22.069C371 18.051 367.852 14.767 364.001 14.767H363.995Z" fill="white"/>
<path d="M280.08 8.895H277.23C277.23 8.754 277.238 8.606 277.238 8.457C277.238 3.904 273.667 0.171997 269.295 0.171997C264.93 0.171997 261.352 3.896 261.352 8.457C261.352 8.606 261.352 8.746 261.36 8.895H259.177C256.882 8.895 255 10.859 255 13.253C255 15.646 256.882 17.61 259.177 17.61H280.073C282.368 17.61 284.25 15.646 284.25 13.253C284.25 10.859 282.368 8.895 280.073 8.895H280.08Z" fill="white"/>
<path d="M49.7137 22.6H49.1866C48.5647 21.056 47.0972 19.972 45.3793 19.972C44.8408 19.972 44.3251 20.082 43.8549 20.278C43.0358 15.391 38.9023 11.646 33.9612 11.646C28.436 11.646 23.9195 16.33 23.9195 22.05C23.9195 22.235 23.9233 22.416 23.9347 22.597H23.2863C20.3777 22.597 18 25.06 18 28.074C18 31.087 20.3777 33.551 23.2863 33.551H49.7137C52.6223 33.551 55 31.087 55 28.074C55 25.06 52.6223 22.597 49.7137 22.597V22.6Z" fill="white"/>
<path opacity="0.46" fill-rule="evenodd" clip-rule="evenodd" d="M290.152 102.105C283.417 101.659 276.772 101.541 270.232 101.713C263.692 101.541 257.047 101.659 250.312 102.105C221.647 104.002 195.155 111.409 172.774 122.734H367.675C345.297 111.415 318.811 104.005 290.152 102.105Z" fill="#4E968D"/>
<path opacity="0.46" fill-rule="evenodd" clip-rule="evenodd" d="M0 122.734H130.792C104.556 103.121 68.9494 89.867 29.1525 87.233C19.23 86.576 9.48 86.615 0 87.28V122.734Z" fill="#66AAA2"/>
<path opacity="0.46" fill-rule="evenodd" clip-rule="evenodd" d="M0 122.734H94.8265C75.1618 114.503 52.9033 109.149 29.1525 107.573C19.23 106.916 9.48 106.955 0 107.62V122.734Z" fill="#66AAA2"/>
<path opacity="0.46" fill-rule="evenodd" clip-rule="evenodd" d="M270.233 81.373C276.773 81.201 283.418 81.319 290.153 81.765C322.005 83.877 351.173 92.795 375 106.321V122.734H141.796C168.509 100.135 206.92 84.636 250.313 81.765C257.048 81.319 263.693 81.201 270.233 81.373Z" fill="#4E968D"/>
</g>
</svg>
