<svg width="46" height="42" viewBox="0 0 46 42" fill="none" xmlns="http://www.w3.org/2000/svg">
<path d="M45.6911 21.3906L42.3558 3.51563C42.2743 3.07992 42.1045 2.66548 41.8569 2.29781C41.6093 1.93014 41.2891 1.61701 40.916 1.37766C40.5429 1.13832 40.1248 0.977824 39.6874 0.906052C39.25 0.83428 38.8025 0.852746 38.3725 0.960315L38.3095 0.978596L27.6414 4.125H18.3586L7.69045 0.988752L7.62748 0.970471C7.19746 0.862902 6.74999 0.844436 6.31257 0.916208C5.87515 0.98798 5.45704 1.14847 5.08394 1.38782C4.71085 1.62716 4.39066 1.9403 4.14306 2.30797C3.89547 2.67564 3.7257 3.09007 3.6442 3.52578L0.308887 21.3906C0.166259 22.1061 0.27213 22.8488 0.608989 23.4959C0.945847 24.1431 1.49351 24.6558 2.16139 24.9494C2.58911 25.1455 3.0538 25.248 3.52436 25.25C4.08756 25.2497 4.64036 25.0982 5.12498 24.8113V33.375C5.12498 35.5299 5.981 37.5965 7.50474 39.1202C9.02847 40.644 11.0951 41.5 13.25 41.5H32.75C34.9049 41.5 36.9715 40.644 38.4952 39.1202C40.019 37.5965 40.875 35.5299 40.875 33.375V24.8133C41.3591 25.0997 41.9111 25.2512 42.4736 25.252C42.9446 25.2507 43.41 25.1489 43.8386 24.9534C44.5072 24.6597 45.0555 24.1463 45.3924 23.4983C45.7293 22.8504 45.8347 22.1067 45.6911 21.3906ZM3.49998 22L6.83732 4.125L15.3828 6.63766L3.49998 22ZM32.75 38.25H24.625V35.6723L27.3997 32.8997C27.7046 32.5948 27.8759 32.1812 27.8759 31.75C27.8759 31.3188 27.7046 30.9052 27.3997 30.6003C27.0948 30.2954 26.6812 30.1241 26.25 30.1241C25.8188 30.1241 25.4052 30.2954 25.1003 30.6003L23 32.7027L20.8997 30.6003C20.5948 30.2954 20.1812 30.1241 19.75 30.1241C19.3188 30.1241 18.9052 30.2954 18.6003 30.6003C18.2954 30.9052 18.1241 31.3188 18.1241 31.75C18.1241 32.1812 18.2954 32.5948 18.6003 32.8997L21.375 35.6723V38.25H13.25C11.957 38.25 10.7171 37.7364 9.80283 36.8221C8.88859 35.9079 8.37498 34.6679 8.37498 33.375V21.0067L18.9233 7.375H27.0767L37.625 21.0067V33.375C37.625 34.6679 37.1114 35.9079 36.1971 36.8221C35.2829 37.7364 34.0429 38.25 32.75 38.25ZM42.5 22L30.6172 6.63766L39.1626 4.125L42.5 22ZM18.125 24.4375C18.125 24.9196 17.982 25.3909 17.7142 25.7917C17.4464 26.1925 17.0657 26.505 16.6203 26.6895C16.1749 26.8739 15.6848 26.9222 15.2119 26.8282C14.7391 26.7341 14.3048 26.502 13.9639 26.1611C13.623 25.8202 13.3909 25.3859 13.2968 24.913C13.2028 24.4402 13.251 23.9501 13.4355 23.5047C13.62 23.0593 13.9324 22.6786 14.3333 22.4108C14.7341 22.143 15.2054 22 15.6875 22C16.3339 22 16.9539 22.2568 17.4111 22.7139C17.8682 23.1711 18.125 23.791 18.125 24.4375ZM32.75 24.4375C32.75 24.9196 32.607 25.3909 32.3392 25.7917C32.0713 26.1925 31.6907 26.505 31.2453 26.6895C30.7999 26.8739 30.3098 26.9222 29.8369 26.8282C29.3641 26.7341 28.9298 26.502 28.5889 26.1611C28.248 25.8202 28.0159 25.3859 27.9218 24.913C27.8278 24.4402 27.876 23.9501 28.0605 23.5047C28.245 23.0593 28.5574 22.6786 28.9583 22.4108C29.3591 22.143 29.8304 22 30.3125 22C30.9589 22 31.5789 22.2568 32.036 22.7139C32.4932 23.1711 32.75 23.791 32.75 24.4375Z" fill="#A9593D"/>
</svg>
