<svg width="50" height="40" viewBox="0 0 50 40" fill="none" xmlns="http://www.w3.org/2000/svg">
<path d="M46.125 5H41.25V3.375C41.25 2.51305 40.9076 1.6864 40.2981 1.0769C39.6886 0.46741 38.862 0.125 38 0.125H12C11.138 0.125 10.3114 0.46741 9.7019 1.0769C9.09241 1.6864 8.75 2.51305 8.75 3.375V5H3.875C3.01305 5 2.1864 5.34241 1.5769 5.9519C0.96741 6.5614 0.625 7.38805 0.625 8.25V11.5C0.625 13.6549 1.48102 15.7215 3.00476 17.2452C3.75923 17.9997 4.65493 18.5982 5.6407 19.0065C6.62647 19.4148 7.68301 19.625 8.75 19.625H9.49141C10.4486 22.6585 12.2737 25.345 14.7412 27.3525C17.2086 29.3601 20.2102 30.6006 23.375 30.9208V35.875H18.5C18.069 35.875 17.6557 36.0462 17.351 36.351C17.0462 36.6557 16.875 37.069 16.875 37.5C16.875 37.931 17.0462 38.3443 17.351 38.649C17.6557 38.9538 18.069 39.125 18.5 39.125H31.5C31.931 39.125 32.3443 38.9538 32.649 38.649C32.9538 38.3443 33.125 37.931 33.125 37.5C33.125 37.069 32.9538 36.6557 32.649 36.351C32.3443 36.0462 31.931 35.875 31.5 35.875H26.625V30.9147C33.1128 30.2586 38.4956 25.7066 40.4538 19.625H41.25C43.4049 19.625 45.4715 18.769 46.9952 17.2452C48.519 15.7215 49.375 13.6549 49.375 11.5V8.25C49.375 7.38805 49.0326 6.5614 48.4231 5.9519C47.8136 5.34241 46.987 5 46.125 5ZM8.75 16.375C7.45707 16.375 6.21709 15.8614 5.30285 14.9471C4.38861 14.0329 3.875 12.7929 3.875 11.5V8.25H8.75V14.75C8.75 15.2917 8.77641 15.8333 8.82922 16.375H8.75ZM38 14.5672C38 21.7822 32.213 27.6972 25.0995 27.75H25C21.5522 27.75 18.2456 26.3804 15.8076 23.9424C13.3696 21.5044 12 18.1978 12 14.75V3.375H38V14.5672ZM46.125 11.5C46.125 12.7929 45.6114 14.0329 44.6971 14.9471C43.7829 15.8614 42.5429 16.375 41.25 16.375H41.1484C41.2151 15.7747 41.249 15.1712 41.25 14.5672V8.25H46.125V11.5Z" fill="#4947CA"/>
</svg>
